<?xml version="1.0" encoding="utf-8"?>
<!-- Generator: Adobe Illustrator 25.4.1, SVG Export Plug-In . SVG Version: 6.00 Build 0)  -->
<svg version="1.1" id="schedule_black_24dp" xmlns="http://www.w3.org/2000/svg" xmlns:xlink="http://www.w3.org/1999/xlink"
	 x="0px" y="0px" viewBox="0 0 24 24" style="enable-background:new 0 0 24 24;" xml:space="preserve">
<style type="text/css">
	.st0{fill:#F2F2F2;}
	.st1{fill:#1B1C10;}
	.st2{fill:#E2E2E2;}
	.st3{fill:#B2B2B3;}
	.st4{fill:#961000;}
	.st5{fill:#01ACB6;}
	.st6{opacity:0.5;}
	.st7{opacity:0.15;}
	.st8{fill:#E6E6E6;}
</style>
<g>
	<g id="podvozje">
		<g>
			<polygon points="22.2,14.9 16.9,14.9 2,14.9 1.1,14.4 1.4,12.3 2.9,10.7 18.3,10.7 21.8,11.8 22.4,13.5 			"/>
		</g>
	</g>
	<path id="steklo" class="st0" d="M14.5,7.9c0,0,1.5,1.1,3.1,2.5c-2.7,0.1-3.5,0.2-3.5,0.2L3.7,10.2L2.1,10c0,0,0.7-1.2,1.3-2
		c3.2-0.3,6.1-0.3,6.1-0.3l3.8,0.2L14.5,7.9z"/>
	<g id="kolo">
		<g>
			<path class="st1" d="M21.1,16c0.9-0.8,1-2.1,0.2-3c-0.8-0.9-2.1-1-3-0.2c-0.9,0.8-1,2.1-0.2,3C18.9,16.6,20.2,16.8,21.1,16z"/>
			<path d="M20.6,15.4c0.6-0.5,0.6-1.3,0.2-1.9c-0.5-0.6-1.3-0.6-1.9-0.2c-0.6,0.5-0.6,1.3-0.2,1.9C19.2,15.8,20,15.9,20.6,15.4z"/>
			<path class="st2" d="M20.3,15.1c0.4-0.3,0.4-0.9,0.1-1.2c-0.3-0.4-0.9-0.4-1.2-0.1C18.8,14,18.7,14.6,19,15
				C19.4,15.3,19.9,15.4,20.3,15.1z"/>
			<polygon class="st3" points="20.1,14.6 20.3,15.4 20,15.6 19.6,14.9 19.5,14.8 18.8,15.3 18.7,15.2 18.7,15.2 18.7,15.2 
				18.7,15.2 18.7,15.2 18.6,15 19.1,14.4 19.1,14.3 18.5,13.7 18.7,13.5 19.5,13.9 19.6,13.8 19.8,13.1 20.1,13.2 20,13.9 20.1,14 
				20.1,14 20.1,14 20.9,14.1 20.9,14.4 20.1,14.5 			"/>
			<g>
				<path class="st3" d="M20.6,15.5c0.6-0.5,0.7-1.4,0.2-2c-0.5-0.6-1.4-0.7-2-0.2c-0.6,0.5-0.7,1.4-0.2,2
					C19.1,15.9,20,16,20.6,15.5z M20.5,15.3c-0.5,0.4-1.2,0.4-1.7-0.1c-0.4-0.5-0.4-1.2,0.1-1.7c0.5-0.4,1.2-0.4,1.7,0.1
					C21,14.1,21,14.9,20.5,15.3z"/>
			</g>
		</g>
		<path class="st1" d="M19.8,14.6c0.1-0.1,0.1-0.2,0-0.3c-0.1-0.1-0.2-0.1-0.3,0c-0.1,0.1-0.1,0.2,0,0.3
			C19.6,14.6,19.8,14.6,19.8,14.6z"/>
	</g>
	<g id="kolo_00000025420515905285222450000007733597413070662078_">
		<g>
			<path class="st1" d="M5,16c0.9-0.8,1-2.1,0.2-3c-0.8-0.9-2.1-1-3-0.2c-0.9,0.8-1,2.1-0.2,3C2.8,16.6,4.1,16.8,5,16z"/>
			<path d="M4.5,15.4c0.6-0.5,0.6-1.3,0.2-1.9c-0.5-0.6-1.3-0.6-1.9-0.2c-0.6,0.5-0.6,1.3-0.2,1.9C3.1,15.8,4,15.9,4.5,15.4z"/>
			<path class="st2" d="M4.2,15.1c0.4-0.3,0.4-0.9,0.1-1.2c-0.3-0.4-0.9-0.4-1.2-0.1C2.7,14,2.7,14.6,3,15
				C3.3,15.3,3.9,15.4,4.2,15.1z"/>
			<polygon class="st3" points="4,14.6 4.2,15.4 4,15.6 3.5,14.9 3.4,14.8 2.7,15.3 2.6,15.2 2.6,15.2 2.6,15.2 2.6,15.2 2.6,15.2 
				2.5,15 3.1,14.4 3,14.3 2.5,13.7 2.6,13.5 3.4,13.9 3.5,13.8 3.8,13.1 4,13.2 4,13.9 4,14 4,14 4,14 4.8,14.1 4.9,14.4 4.1,14.5 
							"/>
			<g>
				<path class="st3" d="M4.6,15.5c0.6-0.5,0.7-1.4,0.2-2c-0.5-0.6-1.4-0.7-2-0.2c-0.6,0.5-0.7,1.4-0.2,2C3.1,15.9,4,16,4.6,15.5z
					 M4.4,15.3c-0.5,0.4-1.2,0.4-1.7-0.1c-0.4-0.5-0.4-1.2,0.1-1.7c0.5-0.4,1.2-0.4,1.7,0.1C5,14.1,4.9,14.9,4.4,15.3z"/>
			</g>
		</g>
		<path class="st1" d="M3.8,14.6c0.1-0.1,0.1-0.2,0-0.3c-0.1-0.1-0.2-0.1-0.3,0c-0.1,0.1-0.1,0.2,0,0.3C3.6,14.6,3.7,14.6,3.8,14.6z
			"/>
	</g>
	<path id="zadnja-luc" class="st4" d="M1.8,11.5c-0.1,0.5-0.4,0.9-0.6,0.8c-0.3-0.1-0.4-0.5-0.3-1c0.1-0.5,0.4-0.9,0.6-0.8
		C1.7,10.5,1.9,11,1.8,11.5z"/>
	<path id="barva" class="st5" d="M23.4,13.8V13c0,0-0.3-0.1-0.3-0.3c0-0.2-0.2-0.9-0.8-1.3c-0.7-0.3-1.7-1-4.3-1c-0.4,0-1,0-1.7,0
		L14,8h0.6c0,0-0.3-0.4-1.1-0.4c-0.8,0-4.9-0.2-8.3,0C4,7.6,3.5,7.8,3.4,8c0.1,0,0.2,0,0.2,0L2.5,9.9c-0.3,0-0.5,0-0.5,0L2,10.1
		c0,0-0.8-0.1-0.8,2.2l-0.4,0.3c0,0-0.3,0.4,0,1.4l0,0.5l0.6,0.3c0,0-0.1-2.6,2.4-2.6c2.5,0,2.4,3,2.4,3h11.2c0,0,0-3.1,2.3-3.1
		c2.9,0,2.5,3,2.5,3.2c-0.1,0.2,0.1,0.1,0.1,0.1l0.3-0.3c0.7,0,0.7-0.3,0.7-0.6v-0.4L23.4,13.8z M13.3,8l2,2.3
		c-1.8,0-4.1-0.1-6.3-0.2L9,8.1L13.3,8z M3.2,9.9l1.1-1.9h4.3l0.1,2.1C6.5,10.1,4.5,10,3.2,9.9z"/>
	<g id="senca">
		<g class="st6">
			<path d="M19.7,11.4c-2.6,0-3,3.1-3,3.1L6.6,14.3c0-1-1.1-2.8-2.9-2.8c-1.8,0-2.7,1.2-2.7,1.8c0,0.6-0.4,0.7-0.4,0.7l0.1,0.5
				l0.6,0.3c0,0-0.1-2.6,2.4-2.6c2.5,0,2.4,3,2.4,3l11.3,0c0,0,0-3.1,2.3-3.1c2.9,0,2.5,3,2.5,3.2c-0.1,0.2,0.1,0.1,0.1,0.1l0.3-0.4
				c0.7,0,0.7-0.3,0.7-0.6h-0.5C22.6,13.7,22.3,11.4,19.7,11.4z"/>
		</g>
		<path class="st7" d="M5.6,12.2c0.8-0.5,2.8-0.4,2.8-0.4s5.8,0,7.1,0c1,0,1.5,0.8,1.6,1.1c-0.4,0.8-0.5,1.5-0.5,1.5l-10-0.2
			C6.7,13.7,6.3,12.8,5.6,12.2z"/>
		<path class="st7" d="M16.3,10.4L14,8h0.6c0,0-0.3-0.4-1.1-0.4c-0.8,0-4.9-0.2-8.3,0C4,7.6,3.5,7.8,3.4,8c0.1,0,0.2,0,0.2,0
			L2.5,9.9l0.7,0l1.1-1.9h4.3l0.1,2.1H9L9,8.1L13.3,8l2.1,2.4L16.3,10.4z"/>
	</g>
	<g id="ogledalo-kljuka">
		<path d="M10.5,10.9c0,0.1-0.1,0.2-0.2,0.2h-1c-0.1,0-0.2-0.1-0.2-0.2l0,0c0-0.1,0.1-0.2,0.2-0.2h1C10.4,10.7,10.5,10.8,10.5,10.9
			L10.5,10.9z"/>
		<path d="M15.7,10.5c0.1-0.3-0.2-0.5-0.6-0.6c-0.4-0.1-0.8,0-0.8,0.3c-0.1,0.3,0.2,0.5,0.6,0.6c0.2,0,0.3,0,0.4,0l0.1,0.2
			c0,0.1,0.1,0.1,0.2,0c0.1,0,0.1-0.1,0-0.2l-0.1-0.1C15.6,10.7,15.6,10.6,15.7,10.5z"/>
	</g>
	<path id="sprednja-luc" class="st8" d="M22.1,11c0.4,0.3,0.6,0.6,0.5,0.8c-0.1,0.2-0.6,0.2-1-0.1c-0.4-0.3-0.6-0.6-0.5-0.8
		C21.3,10.7,21.7,10.8,22.1,11z"/>
</g>
</svg>
