<svg xmlns="http://www.w3.org/2000/svg" viewBox="0 0 5000 2500.1"><style>.st0{fill:#b2edeb}.st1{fill:#f3f9ff}.st2{fill:#00009b}.st3{fill:#1a87ff}.st4{fill:#919a3d}.st5{fill:#787d32}.st6{fill:#ffe8b2}.st7{fill:#d5ae7c}.st8{fill:#252b28}.st9{fill:#4c4b4b}.st10{fill:#fff}.st11{fill:#c6be85}.st12{fill:#533d04}.st13{fill:none}.st14,.st15{fill:#727149}.st15{opacity:.4}.st16{fill:#795a21}.st17{fill:#3f2d2d}.st18{opacity:.7;fill:#886060}.st19{fill:#cfcf3c}.st20{fill:#f05b3e}.st21{fill:#fff2e1}.st22{fill:#886060}.st23{fill:#dc3737}.st24{fill:#765b53}.st25{fill:#59423d}.st26{fill:#abb044}.st27{fill:#4c3a35}</style><g id="Layer_2"><path class="st0" d="M0 0h5000v2500.1H0z"/><path class="st1" d="M3808.2 1465.9s502.6 12.5 585.1 0c0 0-510.1-20-585.1 0zM3353.7 1360.1h700.1s-10-62.5-72.5-40c0 0 5-53.6-52.5-45.6 0 0-52.5-.8-60 42.4 0 0-12.5-111.5-100-115.4 0 0-102.5 3.6-100 121.1 0 0-30-46.1-57.5-38.1 0 0-20 15.6-22.5 45.6 0 0-72.5-32.5-137.5 15 0 0-72.5-37.5-97.6 15zM1082.4 1428.4s492.6 10 540.1 0c0 0-460.1-35.1-540.1 0zM3955.3 911h452.6s-50-25.1-90-12.5c0 0-107.5-87.5-157.5-17.5 0 0-122.5-67.6-107.5 17.5-.1 0-84.6-31.5-97.6 12.5zM140.2 1076.8h810.1s-42.5-77.5-185-25c0 0-52.5-76.5-105-12 0 0 20-53-32.5-60.5 0 0-55 0-82.5 48.8 0 0-10-66.3-55-83.8 0 0-55-22.5-75 30 0 0 32.5-137.5-40-147.5 0 0-110-5-107.5 102.5 0 0-65-97.5-110-82.5 0 0-70 22.5-17.5 152.5 0 0-35-52.5-50-22.5-.1 0-7.6 65 49.9 100zM2015.8 1045.1s492.6 10 540.1 0c0 0-460.1-35-540.1 0zM1645.7 939.6h452.6s-50-25.1-90-12.5c0 0-107.5-87.5-157.5-17.5 0 0-122.5-67.6-107.5 17.5-.1 0-84.6-31.5-97.6 12.5z"/></g><g id="Layer_3"><path class="st2" d="M4305.8 1774.7v-117.1l-25.2-7.6v-22.7l-68 22.7v124.7h-4v4.6h100.8v-4.6z"/><path class="st3" d="M4221.7 1661.2h7.2v6.9h-7.2zM4236.8 1661.2h7.2v6.9h-7.2zM4251.9 1661.2h7.2v6.9h-7.2zM4267 1661.2h7.2v6.9h-7.2zM4289.5 1661.2h7.2v6.9h-7.2zM4221.7 1673.6h7.2v6.9h-7.2zM4236.8 1673.6h7.2v6.9h-7.2zM4251.9 1673.6h7.2v6.9h-7.2zM4267 1673.6h7.2v6.9h-7.2zM4289.5 1673.6h7.2v6.9h-7.2zM4221.7 1686h7.2v6.9h-7.2zM4236.8 1686h7.2v6.9h-7.2zM4251.9 1686h7.2v6.9h-7.2zM4267 1686h7.2v6.9h-7.2zM4289.5 1686h7.2v6.9h-7.2zM4221.7 1698.4h7.2v6.9h-7.2zM4236.8 1698.4h7.2v6.9h-7.2zM4251.9 1698.4h7.2v6.9h-7.2zM4267 1698.4h7.2v6.9h-7.2zM4289.5 1698.4h7.2v6.9h-7.2zM4221.7 1710.8h7.2v6.9h-7.2zM4236.8 1710.8h7.2v6.9h-7.2zM4251.9 1710.8h7.2v6.9h-7.2zM4267 1710.8h7.2v6.9h-7.2zM4289.5 1710.8h7.2v6.9h-7.2zM4221.7 1723.2h7.2v6.9h-7.2zM4236.8 1723.2h7.2v6.9h-7.2zM4251.9 1723.2h7.2v6.9h-7.2zM4267 1723.2h7.2v6.9h-7.2zM4289.5 1723.2h7.2v6.9h-7.2z"/><g><path class="st3" d="M4221.7 1735.6h7.2v6.9h-7.2zM4236.8 1735.6h7.2v6.9h-7.2zM4251.9 1735.6h7.2v6.9h-7.2zM4267 1735.6h7.2v6.9h-7.2zM4289.5 1735.6h7.2v6.9h-7.2z"/></g><g><path class="st3" d="M4221.7 1748h7.2v6.9h-7.2zM4236.8 1748h7.2v6.9h-7.2zM4251.9 1748h7.2v6.9h-7.2zM4267 1748h7.2v6.9h-7.2zM4289.5 1748h7.2v6.9h-7.2z"/></g><g><path class="st3" d="M4221.7 1760.4h7.2v6.9h-7.2zM4236.8 1760.4h7.2v6.9h-7.2zM4251.9 1760.4h7.2v6.9h-7.2zM4267 1760.4h7.2v6.9h-7.2zM4289.5 1760.4h7.2v6.9h-7.2z"/></g><g><path class="st2" d="M4525 1789.1v-260.5l-56-16.8v-50.6l-151.1 50.6v277.3h-8.9v10.2h224.1v-10.2z"/><path class="st3" d="M4338.1 1536.7h15.9v15.3h-15.9zM4371.7 1536.7h15.9v15.3h-15.9zM4405.2 1536.7h15.9v15.3h-15.9zM4438.8 1536.7h15.9v15.3h-15.9zM4488.8 1536.7h15.9v15.3h-15.9zM4338.1 1564.3h15.9v15.3h-15.9zM4371.7 1564.3h15.9v15.3h-15.9zM4405.2 1564.3h15.9v15.3h-15.9zM4438.8 1564.3h15.9v15.3h-15.9zM4488.8 1564.3h15.9v15.3h-15.9z"/><g><path class="st3" d="M4338.1 1591.9h15.9v15.3h-15.9zM4371.7 1591.9h15.9v15.3h-15.9zM4405.2 1591.9h15.9v15.3h-15.9zM4438.8 1591.9h15.9v15.3h-15.9zM4488.8 1591.9h15.9v15.3h-15.9z"/></g><g><path class="st3" d="M4338.1 1619.4h15.9v15.3h-15.9zM4371.7 1619.4h15.9v15.3h-15.9zM4405.2 1619.4h15.9v15.3h-15.9zM4438.8 1619.4h15.9v15.3h-15.9zM4488.8 1619.4h15.9v15.3h-15.9z"/></g><g><path class="st3" d="M4338.1 1647h15.9v15.3h-15.9zM4371.7 1647h15.9v15.3h-15.9zM4405.2 1647h15.9v15.3h-15.9zM4438.8 1647h15.9v15.3h-15.9zM4488.8 1647h15.9v15.3h-15.9z"/></g><g><path class="st3" d="M4338.1 1674.5h15.9v15.3h-15.9zM4371.7 1674.5h15.9v15.3h-15.9zM4405.2 1674.5h15.9v15.3h-15.9zM4438.8 1674.5h15.9v15.3h-15.9zM4488.8 1674.5h15.9v15.3h-15.9z"/></g><g><path class="st3" d="M4338.1 1702.1h15.9v15.3h-15.9zM4371.7 1702.1h15.9v15.3h-15.9zM4405.2 1702.1h15.9v15.3h-15.9zM4438.8 1702.1h15.9v15.3h-15.9zM4488.8 1702.1h15.9v15.3h-15.9z"/></g><g><path class="st3" d="M4338.1 1729.7h15.9v15.3h-15.9zM4371.7 1729.7h15.9v15.3h-15.9zM4405.2 1729.7h15.9v15.3h-15.9zM4438.8 1729.7h15.9v15.3h-15.9zM4488.8 1729.7h15.9v15.3h-15.9z"/></g><g><path class="st3" d="M4338.1 1757.2h15.9v15.3h-15.9zM4371.7 1757.2h15.9v15.3h-15.9zM4405.2 1757.2h15.9v15.3h-15.9zM4438.8 1757.2h15.9v15.3h-15.9zM4488.8 1757.2h15.9v15.3h-15.9z"/></g></g><g><path class="st2" d="M4727.3 1801.6v-117.2l-25.2-7.5v-22.8l-67.9 22.8v124.7h-4v4.6H4731v-4.6z"/><path class="st3" d="M4643.2 1688.1h7.2v6.9h-7.2zM4658.3 1688.1h7.2v6.9h-7.2zM4673.5 1688.1h7.2v6.9h-7.2zM4688.6 1688.1h7.2v6.9h-7.2zM4711 1688.1h7.2v6.9h-7.2zM4643.2 1700.5h7.2v6.9h-7.2zM4658.3 1700.5h7.2v6.9h-7.2zM4673.5 1700.5h7.2v6.9h-7.2zM4688.6 1700.5h7.2v6.9h-7.2zM4711 1700.5h7.2v6.9h-7.2z"/><g><path class="st3" d="M4643.2 1712.9h7.2v6.9h-7.2zM4658.3 1712.9h7.2v6.9h-7.2zM4673.5 1712.9h7.2v6.9h-7.2zM4688.6 1712.9h7.2v6.9h-7.2zM4711 1712.9h7.2v6.9h-7.2z"/></g><g><path class="st3" d="M4643.2 1725.3h7.2v6.9h-7.2zM4658.3 1725.3h7.2v6.9h-7.2zM4673.5 1725.3h7.2v6.9h-7.2zM4688.6 1725.3h7.2v6.9h-7.2zM4711 1725.3h7.2v6.9h-7.2z"/></g><g><path class="st3" d="M4643.2 1737.7h7.2v6.9h-7.2zM4658.3 1737.7h7.2v6.9h-7.2zM4673.5 1737.7h7.2v6.9h-7.2zM4688.6 1737.7h7.2v6.9h-7.2zM4711 1737.7h7.2v6.9h-7.2z"/></g><g><path class="st3" d="M4643.2 1750.1h7.2v6.9h-7.2zM4658.3 1750.1h7.2v6.9h-7.2zM4673.5 1750.1h7.2v6.9h-7.2zM4688.6 1750.1h7.2v6.9h-7.2zM4711 1750.1h7.2v6.9h-7.2z"/></g><g><path class="st3" d="M4643.2 1762.5h7.2v6.9h-7.2zM4658.3 1762.5h7.2v6.9h-7.2zM4673.5 1762.5h7.2v6.9h-7.2zM4688.6 1762.5h7.2v6.9h-7.2zM4711 1762.5h7.2v6.9h-7.2z"/></g><g><path class="st3" d="M4643.2 1774.9h7.2v6.9h-7.2zM4658.3 1774.9h7.2v6.9h-7.2zM4673.5 1774.9h7.2v6.9h-7.2zM4688.6 1774.9h7.2v6.9h-7.2zM4711 1774.9h7.2v6.9h-7.2z"/></g><g><path class="st3" d="M4643.2 1787.3h7.2v6.9h-7.2zM4658.3 1787.3h7.2v6.9h-7.2zM4673.5 1787.3h7.2v6.9h-7.2zM4688.6 1787.3h7.2v6.9h-7.2zM4711 1787.3h7.2v6.9h-7.2z"/></g></g><g><path class="st2" d="M4911 1847.7v-117.2l-25.2-7.5v-22.8l-67.9 22.8v124.7h-4.1v4.6H4914.6v-4.6z"/><path class="st3" d="M4826.9 1734.2h7.2v6.9h-7.2zM4842 1734.2h7.2v6.9h-7.2zM4857.1 1734.2h7.2v6.9h-7.2zM4872.2 1734.2h7.2v6.9h-7.2zM4894.7 1734.2h7.2v6.9h-7.2zM4826.9 1746.6h7.2v6.9h-7.2zM4842 1746.6h7.2v6.9h-7.2zM4857.1 1746.6h7.2v6.9h-7.2zM4872.2 1746.6h7.2v6.9h-7.2zM4894.7 1746.6h7.2v6.9h-7.2z"/><g><path class="st3" d="M4826.9 1759h7.2v6.9h-7.2zM4842 1759h7.2v6.9h-7.2zM4857.1 1759h7.2v6.9h-7.2zM4872.2 1759h7.2v6.9h-7.2zM4894.7 1759h7.2v6.9h-7.2z"/></g><g><path class="st3" d="M4826.9 1771.4h7.2v6.9h-7.2zM4842 1771.4h7.2v6.9h-7.2zM4857.1 1771.4h7.2v6.9h-7.2zM4872.2 1771.4h7.2v6.9h-7.2zM4894.7 1771.4h7.2v6.9h-7.2z"/></g><g><path class="st3" d="M4826.9 1783.8h7.2v6.9h-7.2zM4842 1783.8h7.2v6.9h-7.2zM4857.1 1783.8h7.2v6.9h-7.2zM4872.2 1783.8h7.2v6.9h-7.2zM4894.7 1783.8h7.2v6.9h-7.2z"/></g><g><path class="st3" d="M4826.9 1796.2h7.2v6.9h-7.2zM4842 1796.2h7.2v6.9h-7.2zM4857.1 1796.2h7.2v6.9h-7.2zM4872.2 1796.2h7.2v6.9h-7.2zM4894.7 1796.2h7.2v6.9h-7.2z"/></g><g><path class="st3" d="M4826.9 1808.6h7.2v6.9h-7.2zM4842 1808.6h7.2v6.9h-7.2zM4857.1 1808.6h7.2v6.9h-7.2zM4872.2 1808.6h7.2v6.9h-7.2zM4894.7 1808.6h7.2v6.9h-7.2z"/></g><g><path class="st3" d="M4826.9 1821h7.2v6.9h-7.2zM4842 1821h7.2v6.9h-7.2zM4857.1 1821h7.2v6.9h-7.2zM4872.2 1821h7.2v6.9h-7.2zM4894.7 1821h7.2v6.9h-7.2z"/></g><g><path class="st3" d="M4826.9 1833.4h7.2v6.9h-7.2zM4842 1833.4h7.2v6.9h-7.2zM4857.1 1833.4h7.2v6.9h-7.2zM4872.2 1833.4h7.2v6.9h-7.2zM4894.7 1833.4h7.2v6.9h-7.2z"/></g></g><g><path class="st2" d="M3265.7 1847v-168.6l-36.2-10.8v-32.7l-97.7 32.7V1847h-5.8v6.6H3271v-6.6z"/><path class="st3" d="M3144.8 1683.7h10.3v9.9h-10.3zM3166.5 1683.7h10.3v9.9h-10.3zM3188.3 1683.7h10.3v9.9h-10.3zM3210 1683.7h10.3v9.9H3210zM3242.3 1683.7h10.3v9.9h-10.3zM3144.8 1701.6h10.3v9.9h-10.3zM3166.5 1701.6h10.3v9.9h-10.3zM3188.3 1701.6h10.3v9.9h-10.3zM3210 1701.6h10.3v9.9H3210zM3242.3 1701.6h10.3v9.9h-10.3z"/><g><path class="st3" d="M3144.8 1719.4h10.3v9.9h-10.3zM3166.5 1719.4h10.3v9.9h-10.3zM3188.3 1719.4h10.3v9.9h-10.3zM3210 1719.4h10.3v9.9H3210zM3242.3 1719.4h10.3v9.9h-10.3z"/></g><g><path class="st3" d="M3144.8 1737.2h10.3v9.9h-10.3zM3166.5 1737.2h10.3v9.9h-10.3zM3188.3 1737.2h10.3v9.9h-10.3zM3210 1737.2h10.3v9.9H3210zM3242.3 1737.2h10.3v9.9h-10.3z"/></g><g><path class="st3" d="M3144.8 1755h10.3v9.9h-10.3zM3166.5 1755h10.3v9.9h-10.3zM3188.3 1755h10.3v9.9h-10.3zM3210 1755h10.3v9.9H3210zM3242.3 1755h10.3v9.9h-10.3z"/></g><g><path class="st3" d="M3144.8 1772.9h10.3v9.9h-10.3zM3166.5 1772.9h10.3v9.9h-10.3zM3188.3 1772.9h10.3v9.9h-10.3zM3210 1772.9h10.3v9.9H3210zM3242.3 1772.9h10.3v9.9h-10.3z"/></g><g><path class="st3" d="M3144.8 1790.7h10.3v9.9h-10.3zM3166.5 1790.7h10.3v9.9h-10.3zM3188.3 1790.7h10.3v9.9h-10.3zM3210 1790.7h10.3v9.9H3210zM3242.3 1790.7h10.3v9.9h-10.3z"/></g><g><path class="st3" d="M3144.8 1808.5h10.3v9.9h-10.3zM3166.5 1808.5h10.3v9.9h-10.3zM3188.3 1808.5h10.3v9.9h-10.3zM3210 1808.5h10.3v9.9H3210zM3242.3 1808.5h10.3v9.9h-10.3z"/></g><g><path class="st3" d="M3144.8 1826.4h10.3v9.9h-10.3zM3166.5 1826.4h10.3v9.9h-10.3zM3188.3 1826.4h10.3v9.9h-10.3zM3210 1826.4h10.3v9.9H3210zM3242.3 1826.4h10.3v9.9h-10.3z"/></g></g><g><path class="st2" d="M4058.9 1816.8V1647l-36.5-10.9v-33l-98.5 33v180.7h-5.8v6.6H4064.2v-6.6z"/><path class="st3" d="M3937.1 1652.3h10.4v10h-10.4zM3959 1652.3h10.4v10H3959zM3980.9 1652.3h10.4v10h-10.4zM4002.7 1652.3h10.4v10h-10.4zM4035.3 1652.3h10.4v10h-10.4zM3937.1 1670.3h10.4v10h-10.4zM3959 1670.3h10.4v10H3959zM3980.9 1670.3h10.4v10h-10.4zM4002.7 1670.3h10.4v10h-10.4zM4035.3 1670.3h10.4v10h-10.4z"/><g><path class="st3" d="M3937.1 1688.2h10.4v10h-10.4zM3959 1688.2h10.4v10H3959zM3980.9 1688.2h10.4v10h-10.4zM4002.7 1688.2h10.4v10h-10.4zM4035.3 1688.2h10.4v10h-10.4z"/></g><g><path class="st3" d="M3937.1 1706.2h10.4v10h-10.4zM3959 1706.2h10.4v10H3959zM3980.9 1706.2h10.4v10h-10.4zM4002.7 1706.2h10.4v10h-10.4zM4035.3 1706.2h10.4v10h-10.4z"/></g><g><path class="st3" d="M3937.1 1724.2h10.4v10h-10.4zM3959 1724.2h10.4v10H3959zM3980.9 1724.2h10.4v10h-10.4zM4002.7 1724.2h10.4v10h-10.4zM4035.3 1724.2h10.4v10h-10.4z"/></g><g><path class="st3" d="M3937.1 1742.1h10.4v10h-10.4zM3959 1742.1h10.4v10H3959zM3980.9 1742.1h10.4v10h-10.4zM4002.7 1742.1h10.4v10h-10.4zM4035.3 1742.1h10.4v10h-10.4z"/></g><g><path class="st3" d="M3937.1 1760.1h10.4v10h-10.4zM3959 1760.1h10.4v10H3959zM3980.9 1760.1h10.4v10h-10.4zM4002.7 1760.1h10.4v10h-10.4zM4035.3 1760.1h10.4v10h-10.4z"/></g><g><path class="st3" d="M3937.1 1778h10.4v10h-10.4zM3959 1778h10.4v10H3959zM3980.9 1778h10.4v10h-10.4zM4002.7 1778h10.4v10h-10.4zM4035.3 1778h10.4v10h-10.4z"/></g><g><path class="st3" d="M3937.1 1796h10.4v10h-10.4zM3959 1796h10.4v10H3959zM3980.9 1796h10.4v10h-10.4zM4002.7 1796h10.4v10h-10.4zM4035.3 1796h10.4v10h-10.4z"/></g></g><g><path class="st2" d="M3530.2 1886.7v-121.3l-26-7.8v-23.5l-70.4 23.5v129.1h-4.2v4.8H3534v-4.8z"/><path class="st3" d="M3443.2 1769.2h7.4v7.1h-7.4zM3458.8 1769.2h7.4v7.1h-7.4zM3474.5 1769.2h7.4v7.1h-7.4zM3490.1 1769.2h7.4v7.1h-7.4zM3513.4 1769.2h7.4v7.1h-7.4zM3443.2 1782.1h7.4v7.1h-7.4zM3458.8 1782.1h7.4v7.1h-7.4zM3474.5 1782.1h7.4v7.1h-7.4zM3490.1 1782.1h7.4v7.1h-7.4zM3513.4 1782.1h7.4v7.1h-7.4z"/><g><path class="st3" d="M3443.2 1794.9h7.4v7.1h-7.4zM3458.8 1794.9h7.4v7.1h-7.4zM3474.5 1794.9h7.4v7.1h-7.4zM3490.1 1794.9h7.4v7.1h-7.4zM3513.4 1794.9h7.4v7.1h-7.4z"/></g><g><path class="st3" d="M3443.2 1807.7h7.4v7.1h-7.4zM3458.8 1807.7h7.4v7.1h-7.4zM3474.5 1807.7h7.4v7.1h-7.4zM3490.1 1807.7h7.4v7.1h-7.4zM3513.4 1807.7h7.4v7.1h-7.4z"/></g><g><path class="st3" d="M3443.2 1820.6h7.4v7.1h-7.4zM3458.8 1820.6h7.4v7.1h-7.4zM3474.5 1820.6h7.4v7.1h-7.4zM3490.1 1820.6h7.4v7.1h-7.4zM3513.4 1820.6h7.4v7.1h-7.4z"/></g><g><path class="st3" d="M3443.2 1833.4h7.4v7.1h-7.4zM3458.8 1833.4h7.4v7.1h-7.4zM3474.5 1833.4h7.4v7.1h-7.4zM3490.1 1833.4h7.4v7.1h-7.4zM3513.4 1833.4h7.4v7.1h-7.4z"/></g><g><path class="st3" d="M3443.2 1846.2h7.4v7.1h-7.4zM3458.8 1846.2h7.4v7.1h-7.4zM3474.5 1846.2h7.4v7.1h-7.4zM3490.1 1846.2h7.4v7.1h-7.4zM3513.4 1846.2h7.4v7.1h-7.4z"/></g><g><path class="st3" d="M3443.2 1859.1h7.4v7.1h-7.4zM3458.8 1859.1h7.4v7.1h-7.4zM3474.5 1859.1h7.4v7.1h-7.4zM3490.1 1859.1h7.4v7.1h-7.4zM3513.4 1859.1h7.4v7.1h-7.4z"/></g><g><path class="st3" d="M3443.2 1871.9h7.4v7.1h-7.4zM3458.8 1871.9h7.4v7.1h-7.4zM3474.5 1871.9h7.4v7.1h-7.4zM3490.1 1871.9h7.4v7.1h-7.4zM3513.4 1871.9h7.4v7.1h-7.4z"/></g></g><g><path class="st2" d="M4623.6 1729.7h3.4l-3.4-1.6v-.3h-.5l-3.2-1.6v-7.3h-4.6v5l-9.1-4.5-22.8 10.3h5.8v11.6h-21.1v-12h3.6l-20.8-10.4-22.8 10.4h5.6v53.3h-2.1v3.2h94.6v-3.2h-2.6z"/><path class="st3" d="M4543 1739.2h4.8v4.7h-4.8zM4553.2 1739.2h4.8v4.7h-4.8zM4575.7 1752.9h4.8v4.7h-4.8zM4575.7 1760.7h4.8v4.7h-4.8zM4588.5 1752.9h3.5v4.7h-3.5zM4588.5 1760.7h3.5v4.7h-3.5zM4565.6 1752.9h3.5v4.7h-3.5zM4565.6 1760.7h3.5v4.7h-3.5zM4543 1747.6h4.8v4.7h-4.8zM4553.2 1747.6h4.8v4.7h-4.8zM4543 1756h4.8v4.7h-4.8zM4553.2 1756h4.8v4.7h-4.8zM4543 1764.4h4.8v4.7h-4.8zM4553.2 1764.4h4.8v4.7h-4.8zM4543 1772.8h4.8v4.7h-4.8zM4553.2 1772.8h4.8v4.7h-4.8z"/><g><path class="st3" d="M4598.9 1739.2h4.8v4.7h-4.8zM4609.1 1739.2h4.8v4.7h-4.8z"/></g><g><path class="st3" d="M4598.9 1747.6h4.8v4.7h-4.8zM4609.1 1747.6h4.8v4.7h-4.8z"/></g><g><path class="st3" d="M4598.9 1756h4.8v4.7h-4.8zM4609.1 1756h4.8v4.7h-4.8z"/></g><g><path class="st3" d="M4598.9 1764.4h4.8v4.7h-4.8zM4609.1 1764.4h4.8v4.7h-4.8z"/></g><g><path class="st3" d="M4598.9 1772.8h4.8v4.7h-4.8zM4609.1 1772.8h4.8v4.7h-4.8z"/></g><path class="st3" d="M4575.7 1775.1h6.2v8.4h-6.2z"/><ellipse class="st3" cx="4549.9" cy="1729.3" rx="4" ry="3.3"/><ellipse class="st3" cx="4606.4" cy="1729.3" rx="4" ry="3.3"/></g><g><path class="st2" d="M4808.9 1717.6h4.9l-30.7-15.3-33.7 15.3h8.6v114.2h-6.2v4.6h60.9v-4.6h-3.8z"/><path class="st3" d="M4776.6 1717c0-2.7 2.7-4.9 5.9-4.9s5.9 2.2 5.9 4.9-2.7 4.9-5.9 4.9-5.9-2.2-5.9-4.9zM4783.4 1820h10.3v13.4h-10.3zM4770.4 1730.3h7.9v7.3h-7.9zM4770.4 1743.4h7.9v7.3h-7.9zM4785.5 1755.1h7.9v7.3h-7.9zM4785.5 1768.2h7.9v7.3h-7.9zM4785.5 1743.4h7.9v7.3h-7.9zM4770.4 1779.9h7.9v7.3h-7.9zM4770.4 1768.2h7.9v7.3h-7.9zM4785.5 1804.2h7.9v7.3h-7.9zM4785.5 1792.5h7.9v7.3h-7.9zM4770.4 1816.6h7.9v7.3h-7.9zM4770.4 1804.9h7.9v7.3h-7.9z"/></g><g><path class="st2" d="M4182.8 1810.9v-194.5l-40.7-12.3-2.7-44-1.9 42.6-19.6-5.9-3.4-63.4-3.3 61.3-39.3-11.8v228h-7.4v6.7H4189.6v-6.7z"/><path class="st3" d="M4085.8 1788h82.3v10.9h-82.3zM4085.8 1768.1h82.3v10.9h-82.3zM4085.8 1630.2h82.3v10.9h-82.3zM4085.8 1651h82.3v10.9h-82.3zM4085.8 1671.7h82.3v10.9h-82.3zM4085.8 1692.5h82.3v10.9h-82.3zM4085.8 1713.3h82.3v10.9h-82.3zM4085.8 1734h82.3v10.9h-82.3z"/></g><g><path class="st2" d="M3662.9 1869.3v-101.8l-21.8-6.5v-19.8L3582 1761v108.3h-3.5v4H3666.1v-4z"/><path class="st3" d="M3589.9 1770.7h6.2v6h-6.2zM3603 1770.7h6.2v6h-6.2zM3616.2 1770.7h6.2v6h-6.2zM3629.3 1770.7h6.2v6h-6.2zM3648.8 1770.7h6.2v6h-6.2zM3589.9 1781.5h6.2v6h-6.2zM3603 1781.5h6.2v6h-6.2zM3616.2 1781.5h6.2v6h-6.2zM3629.3 1781.5h6.2v6h-6.2zM3648.8 1781.5h6.2v6h-6.2z"/><g><path class="st3" d="M3589.9 1792.2h6.2v6h-6.2zM3603 1792.2h6.2v6h-6.2zM3616.2 1792.2h6.2v6h-6.2zM3629.3 1792.2h6.2v6h-6.2zM3648.8 1792.2h6.2v6h-6.2z"/></g><g><path class="st3" d="M3589.9 1803h6.2v6h-6.2zM3603 1803h6.2v6h-6.2zM3616.2 1803h6.2v6h-6.2zM3629.3 1803h6.2v6h-6.2zM3648.8 1803h6.2v6h-6.2z"/></g><g><path class="st3" d="M3589.9 1813.8h6.2v6h-6.2zM3603 1813.8h6.2v6h-6.2zM3616.2 1813.8h6.2v6h-6.2zM3629.3 1813.8h6.2v6h-6.2zM3648.8 1813.8h6.2v6h-6.2z"/></g><g><path class="st3" d="M3589.9 1824.5h6.2v6h-6.2zM3603 1824.5h6.2v6h-6.2zM3616.2 1824.5h6.2v6h-6.2zM3629.3 1824.5h6.2v6h-6.2zM3648.8 1824.5h6.2v6h-6.2z"/></g><g><path class="st3" d="M3589.9 1835.3h6.2v6h-6.2zM3603 1835.3h6.2v6h-6.2zM3616.2 1835.3h6.2v6h-6.2zM3629.3 1835.3h6.2v6h-6.2zM3648.8 1835.3h6.2v6h-6.2z"/></g><g><path class="st3" d="M3589.9 1846.1h6.2v6h-6.2zM3603 1846.1h6.2v6h-6.2zM3616.2 1846.1h6.2v6h-6.2zM3629.3 1846.1h6.2v6h-6.2zM3648.8 1846.1h6.2v6h-6.2z"/></g><g><path class="st3" d="M3589.9 1856.8h6.2v6h-6.2zM3603 1856.8h6.2v6h-6.2zM3616.2 1856.8h6.2v6h-6.2zM3629.3 1856.8h6.2v6h-6.2zM3648.8 1856.8h6.2v6h-6.2z"/></g></g><g><path class="st2" d="M3737.2 1865.8v-116.7l-24.4-7.3-1.6-26.4-1.1 25.5-11.8-3.5-2-38-2 36.8-23.5-7.2v136.8h-4.5v4h75v-4z"/><path class="st3" d="M3679.1 1852.1h49.4v6.5h-49.4zM3679.1 1840.1h49.4v6.5h-49.4zM3679.1 1757.4h49.4v6.5h-49.4zM3679.1 1769.9h49.4v6.5h-49.4zM3679.1 1782.3h49.4v6.5h-49.4zM3679.1 1794.8h49.4v6.5h-49.4zM3679.1 1807.2h49.4v6.5h-49.4zM3679.1 1819.7h49.4v6.5h-49.4z"/></g><g><path class="st2" d="M3412.6 1936.8V1608l-44.1-13.3-2.9-47.6-2 46.1-21.3-6.5-3.7-68.6-3.6 66.4-42.5-12.8v365.1h-8.1v7.2H3420v-7.2z"/><path class="st3" d="M3307.6 1793.8h89.2v11.8h-89.2zM3307.6 1772.2h89.2v11.8h-89.2zM3307.6 1623h89.2v11.8h-89.2zM3307.6 1645.4h89.2v11.8h-89.2zM3307.6 1667.9h89.2v11.8h-89.2zM3307.6 1690.4h89.2v11.8h-89.2zM3307.6 1712.9h89.2v11.8h-89.2zM3307.6 1735.3h89.2v11.8h-89.2z"/></g><g><path class="st2" d="M1435.1 1826.8v-220.4l-47.3-14.1v-42.9l-127.9 42.9v234.5h-7.5v8.6H1442v-8.6z"/><path class="st3" d="M1277 1613.3h13.5v13H1277zM1305.4 1613.3h13.5v13h-13.5zM1333.8 1613.3h13.5v13h-13.5zM1362.2 1613.3h13.5v13h-13.5zM1404.5 1613.3h13.5v13h-13.5zM1277 1636.7h13.5v13H1277zM1305.4 1636.7h13.5v13h-13.5zM1333.8 1636.7h13.5v13h-13.5zM1362.2 1636.7h13.5v13h-13.5zM1404.5 1636.7h13.5v13h-13.5z"/><g><path class="st3" d="M1277 1660h13.5v13H1277zM1305.4 1660h13.5v13h-13.5zM1333.8 1660h13.5v13h-13.5zM1362.2 1660h13.5v13h-13.5zM1404.5 1660h13.5v13h-13.5z"/></g><g><path class="st3" d="M1277 1683.3h13.5v13H1277zM1305.4 1683.3h13.5v13h-13.5zM1333.8 1683.3h13.5v13h-13.5zM1362.2 1683.3h13.5v13h-13.5zM1404.5 1683.3h13.5v13h-13.5z"/></g><g><path class="st3" d="M1277 1706.6h13.5v13H1277zM1305.4 1706.6h13.5v13h-13.5zM1333.8 1706.6h13.5v13h-13.5zM1362.2 1706.6h13.5v13h-13.5zM1404.5 1706.6h13.5v13h-13.5z"/></g><g><path class="st3" d="M1277 1729.9h13.5v13H1277zM1305.4 1729.9h13.5v13h-13.5zM1333.8 1729.9h13.5v13h-13.5zM1362.2 1729.9h13.5v13h-13.5zM1404.5 1729.9h13.5v13h-13.5z"/></g><g><path class="st3" d="M1277 1753.2h13.5v13H1277zM1305.4 1753.2h13.5v13h-13.5zM1333.8 1753.2h13.5v13h-13.5zM1362.2 1753.2h13.5v13h-13.5zM1404.5 1753.2h13.5v13h-13.5z"/></g><g><path class="st3" d="M1277 1776.5h13.5v13H1277zM1305.4 1776.5h13.5v13h-13.5zM1333.8 1776.5h13.5v13h-13.5zM1362.2 1776.5h13.5v13h-13.5zM1404.5 1776.5h13.5v13h-13.5z"/></g><g><path class="st3" d="M1277 1799.9h13.5v13H1277zM1305.4 1799.9h13.5v13h-13.5zM1333.8 1799.9h13.5v13h-13.5zM1362.2 1799.9h13.5v13h-13.5zM1404.5 1799.9h13.5v13h-13.5z"/></g></g><g><path class="st2" d="M1762.6 1921v-164.4l-35.3-10.6v-32l-95.4 32v175h-5.7v6.5H1767.7v-6.5z"/><path class="st3" d="M1644.6 1761.7h10.1v9.7h-10.1zM1665.8 1761.7h10.1v9.7h-10.1zM1687 1761.7h10.1v9.7H1687zM1708.2 1761.7h10.1v9.7h-10.1zM1739.8 1761.7h10.1v9.7h-10.1zM1644.6 1779.1h10.1v9.7h-10.1zM1665.8 1779.1h10.1v9.7h-10.1zM1687 1779.1h10.1v9.7H1687zM1708.2 1779.1h10.1v9.7h-10.1zM1739.8 1779.1h10.1v9.7h-10.1z"/><g><path class="st3" d="M1644.6 1796.5h10.1v9.7h-10.1zM1665.8 1796.5h10.1v9.7h-10.1zM1687 1796.5h10.1v9.7H1687zM1708.2 1796.5h10.1v9.7h-10.1zM1739.8 1796.5h10.1v9.7h-10.1z"/></g><g><path class="st3" d="M1644.6 1813.9h10.1v9.7h-10.1zM1665.8 1813.9h10.1v9.7h-10.1zM1687 1813.9h10.1v9.7H1687zM1708.2 1813.9h10.1v9.7h-10.1zM1739.8 1813.9h10.1v9.7h-10.1z"/></g><g><path class="st3" d="M1644.6 1831.3h10.1v9.7h-10.1zM1665.8 1831.3h10.1v9.7h-10.1zM1687 1831.3h10.1v9.7H1687zM1708.2 1831.3h10.1v9.7h-10.1zM1739.8 1831.3h10.1v9.7h-10.1z"/></g><g><path class="st3" d="M1644.6 1848.7h10.1v9.7h-10.1zM1665.8 1848.7h10.1v9.7h-10.1zM1687 1848.7h10.1v9.7H1687zM1708.2 1848.7h10.1v9.7h-10.1zM1739.8 1848.7h10.1v9.7h-10.1z"/></g><g><path class="st3" d="M1644.6 1866.1h10.1v9.7h-10.1zM1665.8 1866.1h10.1v9.7h-10.1zM1687 1866.1h10.1v9.7H1687zM1708.2 1866.1h10.1v9.7h-10.1zM1739.8 1866.1h10.1v9.7h-10.1z"/></g><g><path class="st3" d="M1644.6 1883.5h10.1v9.7h-10.1zM1665.8 1883.5h10.1v9.7h-10.1zM1687 1883.5h10.1v9.7H1687zM1708.2 1883.5h10.1v9.7h-10.1zM1739.8 1883.5h10.1v9.7h-10.1z"/></g><g><path class="st3" d="M1644.6 1900.9h10.1v9.7h-10.1zM1665.8 1900.9h10.1v9.7h-10.1zM1687 1900.9h10.1v9.7H1687zM1708.2 1900.9h10.1v9.7h-10.1zM1739.8 1900.9h10.1v9.7h-10.1z"/></g></g><g><path class="st2" d="M2098.4 1814.3v-164.5l-35.4-10.5v-32l-95.4 32v175h-5.6v6.4h141.5v-6.4z"/><path class="st3" d="M1980.3 1655h10.1v9.7h-10.1zM2001.6 1655h10.1v9.7h-10.1zM2022.8 1655h10.1v9.7h-10.1zM2044 1655h10.1v9.7H2044zM2075.5 1655h10.1v9.7h-10.1zM1980.3 1672.4h10.1v9.7h-10.1zM2001.6 1672.4h10.1v9.7h-10.1zM2022.8 1672.4h10.1v9.7h-10.1zM2044 1672.4h10.1v9.7H2044zM2075.5 1672.4h10.1v9.7h-10.1z"/><g><path class="st3" d="M1980.3 1689.8h10.1v9.7h-10.1zM2001.6 1689.8h10.1v9.7h-10.1zM2022.8 1689.8h10.1v9.7h-10.1zM2044 1689.8h10.1v9.7H2044zM2075.5 1689.8h10.1v9.7h-10.1z"/></g><g><path class="st3" d="M1980.3 1707.2h10.1v9.7h-10.1zM2001.6 1707.2h10.1v9.7h-10.1zM2022.8 1707.2h10.1v9.7h-10.1zM2044 1707.2h10.1v9.7H2044zM2075.5 1707.2h10.1v9.7h-10.1z"/></g><g><path class="st3" d="M1980.3 1724.6h10.1v9.7h-10.1zM2001.6 1724.6h10.1v9.7h-10.1zM2022.8 1724.6h10.1v9.7h-10.1zM2044 1724.6h10.1v9.7H2044zM2075.5 1724.6h10.1v9.7h-10.1z"/></g><g><path class="st3" d="M1980.3 1742h10.1v9.7h-10.1zM2001.6 1742h10.1v9.7h-10.1zM2022.8 1742h10.1v9.7h-10.1zM2044 1742h10.1v9.7H2044zM2075.5 1742h10.1v9.7h-10.1z"/></g><g><path class="st3" d="M1980.3 1759.4h10.1v9.7h-10.1zM2001.6 1759.4h10.1v9.7h-10.1zM2022.8 1759.4h10.1v9.7h-10.1zM2044 1759.4h10.1v9.7H2044zM2075.5 1759.4h10.1v9.7h-10.1z"/></g><g><path class="st3" d="M1980.3 1776.8h10.1v9.7h-10.1zM2001.6 1776.8h10.1v9.7h-10.1zM2022.8 1776.8h10.1v9.7h-10.1zM2044 1776.8h10.1v9.7H2044zM2075.5 1776.8h10.1v9.7h-10.1z"/></g><g><path class="st3" d="M1980.3 1794.2h10.1v9.7h-10.1zM2001.6 1794.2h10.1v9.7h-10.1zM2022.8 1794.2h10.1v9.7h-10.1zM2044 1794.2h10.1v9.7H2044zM2075.5 1794.2h10.1v9.7h-10.1z"/></g></g><g><path class="st2" d="M2363.5 1966.7v-164.4l-35.3-10.6v-32l-95.4 32v175h-5.7v6.5H2368.7v-6.5z"/><path class="st3" d="M2245.5 1807.4h10.1v9.7h-10.1zM2266.7 1807.4h10.1v9.7h-10.1zM2287.9 1807.4h10.1v9.7h-10.1zM2309.1 1807.4h10.1v9.7h-10.1zM2340.7 1807.4h10.1v9.7h-10.1zM2245.5 1824.8h10.1v9.7h-10.1zM2266.7 1824.8h10.1v9.7h-10.1zM2287.9 1824.8h10.1v9.7h-10.1zM2309.1 1824.8h10.1v9.7h-10.1zM2340.7 1824.8h10.1v9.7h-10.1z"/><g><path class="st3" d="M2245.5 1842.2h10.1v9.7h-10.1zM2266.7 1842.2h10.1v9.7h-10.1zM2287.9 1842.2h10.1v9.7h-10.1zM2309.1 1842.2h10.1v9.7h-10.1zM2340.7 1842.2h10.1v9.7h-10.1z"/></g><g><path class="st3" d="M2245.5 1859.6h10.1v9.7h-10.1zM2266.7 1859.6h10.1v9.7h-10.1zM2287.9 1859.6h10.1v9.7h-10.1zM2309.1 1859.6h10.1v9.7h-10.1zM2340.7 1859.6h10.1v9.7h-10.1z"/></g><g><path class="st3" d="M2245.5 1877h10.1v9.7h-10.1zM2266.7 1877h10.1v9.7h-10.1zM2287.9 1877h10.1v9.7h-10.1zM2309.1 1877h10.1v9.7h-10.1zM2340.7 1877h10.1v9.7h-10.1z"/></g><g><path class="st3" d="M2245.5 1894.4h10.1v9.7h-10.1zM2266.7 1894.4h10.1v9.7h-10.1zM2287.9 1894.4h10.1v9.7h-10.1zM2309.1 1894.4h10.1v9.7h-10.1zM2340.7 1894.4h10.1v9.7h-10.1z"/></g><g><path class="st3" d="M2245.5 1911.8h10.1v9.7h-10.1zM2266.7 1911.8h10.1v9.7h-10.1zM2287.9 1911.8h10.1v9.7h-10.1zM2309.1 1911.8h10.1v9.7h-10.1zM2340.7 1911.8h10.1v9.7h-10.1z"/></g><g><path class="st3" d="M2245.5 1929.2h10.1v9.7h-10.1zM2266.7 1929.2h10.1v9.7h-10.1zM2287.9 1929.2h10.1v9.7h-10.1zM2309.1 1929.2h10.1v9.7h-10.1zM2340.7 1929.2h10.1v9.7h-10.1z"/></g><g><path class="st3" d="M2245.5 1946.6h10.1v9.7h-10.1zM2266.7 1946.6h10.1v9.7h-10.1zM2287.9 1946.6h10.1v9.7h-10.1zM2309.1 1946.6h10.1v9.7h-10.1zM2340.7 1946.6h10.1v9.7h-10.1z"/></g></g><g><path class="st2" d="M1210.3 1716.5v-164.4l-35.3-10.6v-32l-95.4 32v175h-5.7v6.5H1215.4v-6.5z"/><path class="st3" d="M1092.3 1557.2h10.1v9.7h-10.1zM1113.5 1557.2h10.1v9.7h-10.1zM1134.7 1557.2h10.1v9.7h-10.1zM1155.9 1557.2h10.1v9.7h-10.1zM1187.5 1557.2h10.1v9.7h-10.1zM1092.3 1574.6h10.1v9.7h-10.1zM1113.5 1574.6h10.1v9.7h-10.1zM1134.7 1574.6h10.1v9.7h-10.1zM1155.9 1574.6h10.1v9.7h-10.1zM1187.5 1574.6h10.1v9.7h-10.1z"/><g><path class="st3" d="M1092.3 1592h10.1v9.7h-10.1zM1113.5 1592h10.1v9.7h-10.1zM1134.7 1592h10.1v9.7h-10.1zM1155.9 1592h10.1v9.7h-10.1zM1187.5 1592h10.1v9.7h-10.1z"/></g><g><path class="st3" d="M1092.3 1609.4h10.1v9.7h-10.1zM1113.5 1609.4h10.1v9.7h-10.1zM1134.7 1609.4h10.1v9.7h-10.1zM1155.9 1609.4h10.1v9.7h-10.1zM1187.5 1609.4h10.1v9.7h-10.1z"/></g><g><path class="st3" d="M1092.3 1626.8h10.1v9.7h-10.1zM1113.5 1626.8h10.1v9.7h-10.1zM1134.7 1626.8h10.1v9.7h-10.1zM1155.9 1626.8h10.1v9.7h-10.1zM1187.5 1626.8h10.1v9.7h-10.1z"/></g><g><path class="st3" d="M1092.3 1644.2h10.1v9.7h-10.1zM1113.5 1644.2h10.1v9.7h-10.1zM1134.7 1644.2h10.1v9.7h-10.1zM1155.9 1644.2h10.1v9.7h-10.1zM1187.5 1644.2h10.1v9.7h-10.1z"/></g><g><path class="st3" d="M1092.3 1661.6h10.1v9.7h-10.1zM1113.5 1661.6h10.1v9.7h-10.1zM1134.7 1661.6h10.1v9.7h-10.1zM1155.9 1661.6h10.1v9.7h-10.1zM1187.5 1661.6h10.1v9.7h-10.1z"/></g><g><path class="st3" d="M1092.3 1679h10.1v9.7h-10.1zM1113.5 1679h10.1v9.7h-10.1zM1134.7 1679h10.1v9.7h-10.1zM1155.9 1679h10.1v9.7h-10.1zM1187.5 1679h10.1v9.7h-10.1z"/></g><g><path class="st3" d="M1092.3 1696.4h10.1v9.7h-10.1zM1113.5 1696.4h10.1v9.7h-10.1zM1134.7 1696.4h10.1v9.7h-10.1zM1155.9 1696.4h10.1v9.7h-10.1zM1187.5 1696.4h10.1v9.7h-10.1z"/></g></g><g><path class="st2" d="M2297.1 1713.4v-5.4h-7.9l-76.2-8v-51.5h5.2v-4.4h-2.2v-4.8h-102.7v4.8h-2.2v4.4h4.4v105.7h-6.4v6.4h188v-6.4h-7.9v-40.8z"/><path class="st3" d="M2217.9 1716.7h58v29.3h-58zM2132.1 1661.1h14.1v22.4h-14.1zM2157.6 1661.1h14.1v22.4h-14.1zM2183.3 1661.1h14.1v22.4h-14.1zM2132.1 1692.9h14.1v22.4h-14.1zM2157.6 1692.9h14.1v22.4h-14.1zM2183.3 1692.9h14.1v22.4h-14.1zM2132.1 1723.5h14.1v22.4h-14.1zM2157.6 1723.5h14.1v22.4h-14.1zM2183.3 1723.5h14.1v22.4h-14.1z"/></g><g><path class="st2" d="M1955.5 1756.6h7l-7-3.5v-.6h-1.2l-6.6-3.3v-15h-9.4v10.3l-19-9.4-47.3 21.5h12.1v24h-43.8v-25h7.5l-43.2-21.4-47.3 21.4h11.6v110.7h-4.4v6.5h196.4v-6.5h-5.4z"/><path class="st3" d="M1788.1 1776.3h10.1v9.7h-10.1zM1809.4 1776.3h10.1v9.7h-10.1zM1856.1 1804.7h10.1v9.7h-10.1zM1856.1 1820.8h10.1v9.7h-10.1zM1882.6 1804.7h7.2v9.7h-7.2zM1882.6 1820.8h7.2v9.7h-7.2zM1835.1 1804.7h7.2v9.7h-7.2zM1835.1 1820.8h7.2v9.7h-7.2zM1788.1 1793.7h10.1v9.7h-10.1zM1809.4 1793.7h10.1v9.7h-10.1zM1788.1 1811.1h10.1v9.7h-10.1zM1809.4 1811.1h10.1v9.7h-10.1zM1788.1 1828.5h10.1v9.7h-10.1zM1809.4 1828.5h10.1v9.7h-10.1zM1788.1 1845.9h10.1v9.7h-10.1zM1809.4 1845.9h10.1v9.7h-10.1z"/><g><path class="st3" d="M1904.2 1776.3h10.1v9.7h-10.1zM1925.4 1776.3h10.1v9.7h-10.1z"/></g><g><path class="st3" d="M1904.2 1793.7h10.1v9.7h-10.1zM1925.4 1793.7h10.1v9.7h-10.1z"/></g><g><path class="st3" d="M1904.2 1811.1h10.1v9.7h-10.1zM1925.4 1811.1h10.1v9.7h-10.1z"/></g><g><path class="st3" d="M1904.2 1828.5h10.1v9.7h-10.1zM1925.4 1828.5h10.1v9.7h-10.1z"/></g><g><path class="st3" d="M1904.2 1845.9h10.1v9.7h-10.1zM1925.4 1845.9h10.1v9.7h-10.1z"/></g><path class="st3" d="M1856.1 1850.7h12.9v17.4h-12.9zM1794.2 1755.6c0-3.8 3.7-6.8 8.3-6.8 4.6 0 8.3 3.1 8.3 6.8 0 3.8-3.7 6.8-8.3 6.8-4.5 0-8.3-3-8.3-6.8zM1911.5 1755.6c0-3.8 3.7-6.8 8.3-6.8s8.3 3.1 8.3 6.8c0 3.8-3.7 6.8-8.3 6.8s-8.3-3-8.3-6.8z"/></g><g><path class="st2" d="M2220.2 1784.1h6.9l-43.1-21.4-47.3 21.4h12.1v160.3h-8.7v6.5h85.5v-6.5h-5.4z"/><path class="st3" d="M2174.9 1783.3c0-3.8 3.7-6.8 8.3-6.8 4.6 0 8.3 3.1 8.3 6.8 0 3.8-3.7 6.8-8.3 6.8-4.6 0-8.3-3-8.3-6.8zM2184.5 1927.9h14.5v18.8h-14.5zM2166.2 1802h11.1v10.2h-11.1zM2166.2 1820.4h11.1v10.2h-11.1zM2187.4 1836.8h11.1v10.2h-11.1zM2187.4 1855.2h11.1v10.2h-11.1zM2187.4 1820.4h11.1v10.2h-11.1zM2166.2 1871.6h11.1v10.2h-11.1zM2166.2 1855.2h11.1v10.2h-11.1zM2187.4 1905.7h11.1v10.2h-11.1zM2187.4 1889.2h11.1v10.2h-11.1zM2166.2 1923.1h11.1v10.2h-11.1zM2166.2 1906.6h11.1v10.2h-11.1z"/></g><g><path class="st2" d="M1565.6 1888.4v-188.5l-39.4-11.9-2.6-42.6-1.8 41.3-19.1-5.8-3.3-61.4-3.2 59.4-38-11.5v221h-7.2v6.4h121.2v-6.4z"/><path class="st3" d="M1471.7 1866.2h79.8v10.6h-79.8zM1471.7 1846.8h79.8v10.6h-79.8zM1471.7 1713.3h79.8v10.6h-79.8zM1471.7 1733.4h79.8v10.6h-79.8zM1471.7 1753.5h79.8v10.6h-79.8zM1471.7 1773.6h79.8v10.6h-79.8zM1471.7 1793.7h79.8v10.6h-79.8zM1471.7 1813.9h79.8v10.6h-79.8z"/></g><g><path class="st2" d="M2422.7 1755.3v-188.4l-39.5-11.9-2.6-42.6-1.8 41.2-19-5.7-3.3-61.4-3.2 59.4-38-11.5v220.9h-7.3v6.5h121.3v-6.5z"/><path class="st3" d="M2328.8 1733.2h79.8v10.6h-79.8zM2328.8 1713.8h79.8v10.6h-79.8zM2328.8 1580.3h79.8v10.6h-79.8zM2328.8 1600.4h79.8v10.6h-79.8zM2328.8 1620.5h79.8v10.6h-79.8zM2328.8 1640.6h79.8v10.6h-79.8zM2328.8 1660.7h79.8v10.6h-79.8zM2328.8 1680.8h79.8v10.6h-79.8z"/></g><g><path class="st2" d="M2630.4 1681.9v-5.4h-7.9l-76.2-8.1v-51.5h5.2v-4.4h-2.2v-4.7h-102.7v4.7h-2.2v4.4h4.4v105.7h-6.4v6.4h188v-6.4h-7.9v-40.7z"/><path class="st3" d="M2551.2 1685.1h58v29.3h-58zM2465.5 1629.5h14.1v22.4h-14.1zM2490.9 1629.5h14.1v22.4h-14.1zM2516.7 1629.5h14.1v22.4h-14.1zM2465.5 1661.3h14.1v22.4h-14.1zM2490.9 1661.3h14.1v22.4h-14.1zM2516.7 1661.3h14.1v22.4h-14.1zM2465.5 1691.9h14.1v22.4h-14.1zM2490.9 1691.9h14.1v22.4h-14.1zM2516.7 1691.9h14.1v22.4h-14.1z"/></g><g><path class="st2" d="M2831.8 1704.8v-292.2l-61.2-18.6-4-66-2.8 64-29.5-8.9-5.1-95.3-5 92.2-59-17.8v342.6H2654v10h188.1v-10z"/><path class="st3" d="M2686.2 1670.5H2810v16.4h-123.8zM2686.2 1640.5H2810v16.4h-123.8zM2686.2 1433.3H2810v16.4h-123.8zM2686.2 1464.5H2810v16.4h-123.8zM2686.2 1495.7H2810v16.4h-123.8zM2686.2 1526.9H2810v16.4h-123.8zM2686.2 1558.1H2810v16.4h-123.8zM2686.2 1589.3H2810v16.4h-123.8z"/></g><g><path class="st2" d="M1047 1715v-457.4l-98.3-29.4v-88.9l-265.3 88.9V1715h-15.7v17.9h393.5V1715z"/><path class="st3" d="M718.8 1272h28v26.9h-28zM777.8 1272h28v26.9h-28zM836.7 1272h28v26.9h-28zM895.7 1272h28v26.9h-28zM983.5 1272h28v26.9h-28zM718.8 1320.4h28v26.9h-28zM777.8 1320.4h28v26.9h-28zM836.7 1320.4h28v26.9h-28zM895.7 1320.4h28v26.9h-28zM983.5 1320.4h28v26.9h-28z"/><g><path class="st3" d="M718.8 1368.7h28v26.9h-28zM777.8 1368.7h28v26.9h-28zM836.7 1368.7h28v26.9h-28zM895.7 1368.7h28v26.9h-28zM983.5 1368.7h28v26.9h-28z"/></g><g><path class="st3" d="M718.8 1417.1h28v26.9h-28zM777.8 1417.1h28v26.9h-28zM836.7 1417.1h28v26.9h-28zM895.7 1417.1h28v26.9h-28zM983.5 1417.1h28v26.9h-28z"/></g><g><path class="st3" d="M718.8 1465.5h28v26.9h-28zM777.8 1465.5h28v26.9h-28zM836.7 1465.5h28v26.9h-28zM895.7 1465.5h28v26.9h-28zM983.5 1465.5h28v26.9h-28z"/></g><g><path class="st3" d="M718.8 1513.9h28v26.9h-28zM777.8 1513.9h28v26.9h-28zM836.7 1513.9h28v26.9h-28zM895.7 1513.9h28v26.9h-28zM983.5 1513.9h28v26.9h-28z"/></g><g><path class="st3" d="M718.8 1562.3h28v26.9h-28zM777.8 1562.3h28v26.9h-28zM836.7 1562.3h28v26.9h-28zM895.7 1562.3h28v26.9h-28zM983.5 1562.3h28v26.9h-28z"/></g><g><path class="st3" d="M718.8 1610.7h28v26.9h-28zM777.8 1610.7h28v26.9h-28zM836.7 1610.7h28v26.9h-28zM895.7 1610.7h28v26.9h-28zM983.5 1610.7h28v26.9h-28z"/></g><g><path class="st3" d="M718.8 1659.1h28v26.9h-28zM777.8 1659.1h28v26.9h-28zM836.7 1659.1h28v26.9h-28zM895.7 1659.1h28v26.9h-28zM983.5 1659.1h28v26.9h-28z"/></g></g><g><path class="st2" d="M638.1 1633.7v-164.5l-35.4-10.6v-31.9l-95.4 31.9v175.1h-5.6v6.4h141.5v-6.4z"/><path class="st3" d="M520.1 1474.4h10.1v9.7h-10.1zM541.3 1474.4h10.1v9.7h-10.1zM562.5 1474.4h10.1v9.7h-10.1zM583.7 1474.4h10.1v9.7h-10.1zM615.2 1474.4h10.1v9.7h-10.1zM520.1 1491.8h10.1v9.7h-10.1zM541.3 1491.8h10.1v9.7h-10.1zM562.5 1491.8h10.1v9.7h-10.1zM583.7 1491.8h10.1v9.7h-10.1zM615.2 1491.8h10.1v9.7h-10.1z"/><g><path class="st3" d="M520.1 1509.2h10.1v9.7h-10.1zM541.3 1509.2h10.1v9.7h-10.1zM562.5 1509.2h10.1v9.7h-10.1zM583.7 1509.2h10.1v9.7h-10.1zM615.2 1509.2h10.1v9.7h-10.1z"/></g><g><path class="st3" d="M520.1 1526.6h10.1v9.7h-10.1zM541.3 1526.6h10.1v9.7h-10.1zM562.5 1526.6h10.1v9.7h-10.1zM583.7 1526.6h10.1v9.7h-10.1zM615.2 1526.6h10.1v9.7h-10.1z"/></g><g><path class="st3" d="M520.1 1544h10.1v9.7h-10.1zM541.3 1544h10.1v9.7h-10.1zM562.5 1544h10.1v9.7h-10.1zM583.7 1544h10.1v9.7h-10.1zM615.2 1544h10.1v9.7h-10.1z"/></g><g><path class="st3" d="M520.1 1561.4h10.1v9.7h-10.1zM541.3 1561.4h10.1v9.7h-10.1zM562.5 1561.4h10.1v9.7h-10.1zM583.7 1561.4h10.1v9.7h-10.1zM615.2 1561.4h10.1v9.7h-10.1z"/></g><g><path class="st3" d="M520.1 1578.8h10.1v9.7h-10.1zM541.3 1578.8h10.1v9.7h-10.1zM562.5 1578.8h10.1v9.7h-10.1zM583.7 1578.8h10.1v9.7h-10.1zM615.2 1578.8h10.1v9.7h-10.1z"/></g><g><path class="st3" d="M520.1 1596.2h10.1v9.7h-10.1zM541.3 1596.2h10.1v9.7h-10.1zM562.5 1596.2h10.1v9.7h-10.1zM583.7 1596.2h10.1v9.7h-10.1zM615.2 1596.2h10.1v9.7h-10.1z"/></g><g><path class="st3" d="M520.1 1613.6h10.1v9.7h-10.1zM541.3 1613.6h10.1v9.7h-10.1zM562.5 1613.6h10.1v9.7h-10.1zM583.7 1613.6h10.1v9.7h-10.1zM615.2 1613.6h10.1v9.7h-10.1z"/></g></g><g><path class="st2" d="M214.1 1737v9.7H-.2v-9.7h8.5v-265.2l144.5-48.4v48.4l53.5 16V1737z"/><path class="st3" d="M27.6 1495.7h15.2v14.6H27.6zM59.7 1495.7h15.2v14.6H59.7zM91.8 1495.7H107v14.6H91.8zM123.9 1495.7h15.2v14.6h-15.2zM171.7 1495.7h15.2v14.6h-15.2zM27.6 1522h15.2v14.6H27.6zM59.7 1522h15.2v14.6H59.7zM91.8 1522H107v14.6H91.8zM123.9 1522h15.2v14.6h-15.2zM171.7 1522h15.2v14.6h-15.2z"/><g><path class="st3" d="M27.6 1548.4h15.2v14.6H27.6zM59.7 1548.4h15.2v14.6H59.7zM91.8 1548.4H107v14.6H91.8zM123.9 1548.4h15.2v14.6h-15.2zM171.7 1548.4h15.2v14.6h-15.2z"/></g><g><path class="st3" d="M27.6 1574.7h15.2v14.6H27.6zM59.7 1574.7h15.2v14.6H59.7zM91.8 1574.7H107v14.6H91.8zM123.9 1574.7h15.2v14.6h-15.2zM171.7 1574.7h15.2v14.6h-15.2z"/></g><g><path class="st3" d="M27.6 1601.1h15.2v14.6H27.6zM59.7 1601.1h15.2v14.6H59.7zM91.8 1601.1H107v14.6H91.8zM123.9 1601.1h15.2v14.6h-15.2zM171.7 1601.1h15.2v14.6h-15.2z"/></g><g><path class="st3" d="M27.6 1627.4h15.2v14.6H27.6zM59.7 1627.4h15.2v14.6H59.7zM91.8 1627.4H107v14.6H91.8zM123.9 1627.4h15.2v14.6h-15.2zM171.7 1627.4h15.2v14.6h-15.2z"/></g><g><path class="st3" d="M27.6 1653.8h15.2v14.6H27.6zM59.7 1653.8h15.2v14.6H59.7zM91.8 1653.8H107v14.6H91.8zM123.9 1653.8h15.2v14.6h-15.2zM171.7 1653.8h15.2v14.6h-15.2z"/></g><g><path class="st3" d="M27.6 1680.2h15.2v14.6H27.6zM59.7 1680.2h15.2v14.6H59.7zM91.8 1680.2H107v14.6H91.8zM123.9 1680.2h15.2v14.6h-15.2zM171.7 1680.2h15.2v14.6h-15.2z"/></g><g><path class="st3" d="M27.6 1706.5h15.2v14.6H27.6zM59.7 1706.5h15.2v14.6H59.7zM91.8 1706.5H107v14.6H91.8zM123.9 1706.5h15.2v14.6h-15.2zM171.7 1706.5h15.2v14.6h-15.2z"/></g></g><g><path class="st2" d="M501.3 1473.2h10.5l-10.5-5.2v-.9h-1.8l-10.1-5v-22.8h-14.2v15.7l-28.8-14.3-71.6 32.5h18.3v36.4h-66.3v-37.8h11.3l-65.4-32.5-71.6 32.5h17.6v167.7H212v9.7h297.4v-9.7h-8.1z"/><path class="st3" d="M247.8 1503.1H263v14.6h-15.2zM279.9 1503.1h15.2v14.6h-15.2zM350.7 1546.1h15.2v14.6h-15.2zM350.7 1570.6h15.2v14.6h-15.2zM390.9 1546.1h10.9v14.6h-10.9zM390.9 1570.6h10.9v14.6h-10.9zM318.9 1546.1h10.9v14.6h-10.9zM318.9 1570.6h10.9v14.6h-10.9zM247.8 1529.5H263v14.6h-15.2zM279.9 1529.5h15.2v14.6h-15.2zM247.8 1555.8H263v14.6h-15.2zM279.9 1555.8h15.2v14.6h-15.2zM247.8 1582.2H263v14.6h-15.2zM279.9 1582.2h15.2v14.6h-15.2zM247.8 1608.5H263v14.6h-15.2zM279.9 1608.5h15.2v14.6h-15.2z"/><g><path class="st3" d="M423.5 1503.1h15.2v14.6h-15.2zM455.6 1503.1h15.2v14.6h-15.2z"/></g><g><path class="st3" d="M423.5 1529.5h15.2v14.6h-15.2zM455.6 1529.5h15.2v14.6h-15.2z"/></g><g><path class="st3" d="M423.5 1555.8h15.2v14.6h-15.2zM455.6 1555.8h15.2v14.6h-15.2z"/></g><g><path class="st3" d="M423.5 1582.2h15.2v14.6h-15.2zM455.6 1582.2h15.2v14.6h-15.2z"/></g><g><path class="st3" d="M423.5 1608.5h15.2v14.6h-15.2zM455.6 1608.5h15.2v14.6h-15.2z"/></g><path class="st3" d="M350.7 1615.9h19.5v26.4h-19.5z"/><ellipse class="st3" cx="269.6" cy="1471.8" rx="12.6" ry="10.3"/><ellipse class="st3" cx="447.2" cy="1471.8" rx="12.6" ry="10.3"/></g></g><g id="Layer_8"><path class="st4" d="M5000 1863.2v153.7l-2217.4-4.7c.7-.2 1.4-.3 2.2-.5 284-60.3 984.9-193.6 984.9-193.6 368.9-94.6 746.1-62.4 1048.2 1.1 3 .6 6.1 1.3 9.1 1.9l7.2 1.5c2.6.6 5.3 1.1 7.9 1.7 2.4.5 4.8 1 7.2 1.6 2.7.6 5.3 1.2 8 1.8.1 0 .1 0 .2.1 12.6 2.8 25.1 5.7 37.4 8.6 2.4.6 4.8 1.1 7.2 1.7 3 .7 6.1 1.5 9.1 2.2 30.5 7.5 60.2 15.1 88.8 22.9z"/><path class="st5" d="M5000 1888v126l-265.9-2.3-1378.3-12c430.8-153.4 825.8-190.6 825.8-190.6 210.3-18.5 433.4 3.9 632.2 40 5.7 1 11.3 2.1 17 3.1 59 11.1 115.7 23.2 169.2 35.8z"/><path class="st4" d="M1747.8 2009.2H0v-262.5h-.2v-8c.1 0 .2-.1.2-.1 1.2-.6 2.5-1.1 3.7-1.6 1.5-.7 3.1-1.3 4.6-2 10.8-4.7 21.8-9.3 33.1-13.8l1.5-.6c5.6-2.2 11.2-4.5 16.9-6.7 5-1.9 10.1-3.9 15.2-5.8 15.9-6 32.3-11.8 49-17.4 5-1.7 10.1-3.4 15.2-5 21.7-7 44.1-13.7 67.2-20 21.4-5.8 43.3-11.3 65.9-16.4 6.7-1.5 13.5-3 20.4-4.5 18.9-4 38.2-7.8 57.9-11.2h.2c1.9-.3 3.8-.7 5.7-1 2-.3 4-.7 6-1 2.6-.4 5.2-.9 7.8-1.3 17.5-2.8 35.2-5.4 53.3-7.7 5.1-.6 10.1-1.3 15.2-1.9 5.6-.7 11.2-1.3 16.9-1.9 5.1-.5 10.1-1.1 15.2-1.6 10-1 20.2-1.9 30.4-2.7 34.4-2.8 69.8-4.6 106.2-5.4 786.3 35.7 1122.6 397.6 1140.3 400.1z"/><path class="st5" d="M1578 2018.2H0v-270.6c.6-.3 1.3-.6 1.9-.9 20-8.8 40.7-17.3 62.3-25.6 3.6-1.4 7.1-2.7 10.7-4.1 5.6-2.1 11.2-4.2 16.9-6.2 4-1.5 8.1-2.9 12.2-4.4 11.4-4 22.9-7.9 34.7-11.7.1 0 .3-.1.4-.1 10.7-3.5 21.6-6.8 32.6-10.1 5-1.5 10-2.9 15-4.4 6.5-1.9 13-3.7 19.6-5.5 27.8-7.6 56.5-14.6 86.2-20.9 15.1-1.7 30.1-3.2 45-4.5 4.3-.4 8.7-.8 13-1.1 2-.2 4-.3 6-.5s4-.3 6-.4c50.4-3.8 99.4-5.4 147-5.2 599.1 3.2 971.2 305.8 1055.4 367.2 1.2.9 2.4 1.7 3.5 2.5 4 2.9 7.2 5.1 9.6 6.5z"/><path class="st4" d="M3562.7 2025.5l-2179.2-6.9-129.9-.4s941-342.7 1445-329.3c0 0 42.8-.5 113.3 8.1 34.8 4.3 76.4 10.8 123 20.7 169.8 36.1 405.7 117.4 619.4 300.5 2.8 2.4 5.6 4.8 8.4 7.3z"/><path class="st5" d="M3554.3 2018.2h-1833s742.5-261.9 1213.5-300.5c169.9 36.1 405.7 117.4 619.5 300.5z"/><path class="st6" d="M0 2011.7h5000v103.2H0z"/><path class="st7" d="M0 2114.9h5000v37.9H0z"/><path class="st7" d="M0 2152.6h5000v13.8H0z"/><path class="st8" d="M2059.6 1920.5h5.6c-.5-.2-2.7-.2-5.6 0z"/><path class="st9" d="M0 2500.1h5000v-347.5H0z"/><path class="st10" d="M1706.4 2310h82.8v-4.9h-82.8zM2037.5 2305.1h82.8v4.9h-82.8zM1872 2305.1h82.8v4.9H1872zM1540.9 2305.1h82.8v4.9h-82.8zM2699.8 2305.1h82.8v4.9h-82.8zM2534.2 2305.1h82.8v4.9h-82.8zM2368.7 2310h82.7v-4.9h-82.7zM2203.1 2305.1h82.8v4.9h-82.8zM359.1 2310h82.8v-4.9h-82.8zM690.2 2305.1H773v4.9h-82.8zM524.7 2305.1h82.8v4.9h-82.8zM193.5 2305.1h82.8v4.9h-82.8zM1352.5 2305.1h82.8v4.9h-82.8zM1186.9 2305.1h82.8v4.9h-82.8zM1021.3 2310h82.8v-4.9h-82.8zM855.8 2305.1h82.8v4.9h-82.8zM21 2305.1h82.8v4.9H21zM3024.6 2310h82.8v-4.9h-82.8zM3355.8 2305.1h82.8v4.9h-82.8zM3190.2 2305.1h82.8v4.9h-82.8zM2859.1 2305.1h82.8v4.9h-82.8zM4018 2305.1h82.8v4.9H4018zM3852.4 2305.1h82.8v4.9h-82.8zM3686.9 2310h82.7v-4.9h-82.7zM3521.3 2305.1h82.8v4.9h-82.8z"/><g><path class="st10" d="M4347.2 2310h82.7v-4.9h-82.7zM4678.3 2305.1h82.8v4.9h-82.8zM4512.7 2305.1h82.8v4.9h-82.8zM4181.6 2305.1h82.8v4.9h-82.8zM4843.8 2305.1h82.8v4.9h-82.8z"/></g><path class="st11" d="M3124.6 2081.8h-171.8c-1.7 0-3.1-1.4-3.1-3.1 0-1.7 1.4-3.1 3.1-3.1h171.8c1.7 0 3.1 1.4 3.1 3.1 0 1.7-1.4 3.1-3.1 3.1z"/><g><path class="st12" d="M3048.1 2009.8h5v30.3h-5zM3023.8 2009.2h5v30.3h-5zM3054.3 1953.4h5v57.6h-5zM3016.3 1952.3h5v62.9h-5z"/><path class="st13" d="M2956 2015.9h165.3v25.5H2956z"/><path class="st14" d="M2949.7 1952.2h6.4v131.3h-6.4zM3121.3 1952.2h6.4v131.3h-6.4z"/><path class="st15" d="M3121.3 2017.8h6.4v65.6h-6.4z"/><path class="st16" d="M2956 1952.2h165.3v7H2956zM2956 1961.4h165.3v7H2956zM2956 1971.5h165.3v7H2956zM2956 1980.9h165.3v7H2956zM2956 1990.1h165.3v7H2956zM2956 1999.7h165.3v7H2956zM2956 2008.2h165.3v7H2956zM2956 2015.9h165.3v7H2956zM2956 2024.9h165.3v7H2956zM2956 2033.8h165.3v7H2956z"/><path class="st14" d="M2949.7 1952.2h6.4v12.7h-6.4zM3121.3 1952.3h6.4v12.7h-6.4z"/><path class="st15" d="M2949.7 2017.8h6.4v65.6h-6.4z"/></g><path class="st11" d="M741 2081.8H569.2c-1.7 0-3.1-1.4-3.1-3.1 0-1.7 1.4-3.1 3.1-3.1H741c1.7 0 3.1 1.4 3.1 3.1 0 1.7-1.4 3.1-3.1 3.1z"/><g><path class="st12" d="M664.5 2009.8h5v30.3h-5zM640.2 2009.2h5v30.3h-5zM670.7 1953.4h5v57.6h-5zM632.6 1952.3h5v62.9h-5z"/><path class="st13" d="M572.4 2015.9h165.3v25.5H572.4z"/><path class="st14" d="M566.1 1952.2h6.4v131.3h-6.4zM737.7 1952.2h6.4v131.3h-6.4z"/><path class="st15" d="M737.7 2017.8h6.4v65.6h-6.4z"/><path class="st16" d="M572.4 1952.2h165.3v7H572.4zM572.4 1961.4h165.3v7H572.4zM572.4 1971.5h165.3v7H572.4zM572.4 1980.9h165.3v7H572.4zM572.4 1990.1h165.3v7H572.4zM572.4 1999.7h165.3v7H572.4zM572.4 2008.2h165.3v7H572.4zM572.4 2015.9h165.3v7H572.4zM572.4 2024.9h165.3v7H572.4zM572.4 2033.8h165.3v7H572.4z"/><path class="st14" d="M566.1 1952.2h6.4v12.7h-6.4zM737.7 1952.3h6.4v12.7h-6.4z"/><path class="st15" d="M566.1 2017.8h6.4v65.6h-6.4z"/></g><path class="st17" d="M935.5 1821.7h6.5v257h-6.5z"/><ellipse class="st18" cx="938.7" cy="2078.7" rx="58.3" ry="6"/><ellipse class="st18" cx="3935.2" cy="2078.7" rx="58.3" ry="6"/><path class="st19" d="M2811.8 1697c-264.8 20.8-854 91-1428.3 321.6l-129.9-.4s941-342.7 1445-329.3c0 0 42.7-.5 113.2 8.1z"/><g><path class="st20" d="M1023.7 1750c0 2.4-.9 4.8-2.7 6.6l-75.8 75.8c-3.6 3.6-9.6 3.6-13.3 0l-75.8-75.8c-1.8-1.8-2.7-4.2-2.7-6.6s.9-4.8 2.7-6.6l75.8-75.8c3.6-3.6 9.6-3.6 13.3 0l75.8 75.8c1.8 1.8 2.7 4.2 2.7 6.6z"/><path class="st21" d="M866.9 1755.8c-3.2-3.2-3.2-8.4 0-11.5l65.9-65.9c3.2-3.2 8.4-3.2 11.5 0l65.9 65.9c3.2 3.2 3.2 8.4 0 11.5l-65.9 65.9c-3.2 3.2-8.4 3.2-11.5 0l-65.9-65.9z"/></g><g><path class="st22" d="M936.5 1703.4c0 4.4-3.6 8-8 8s-8-3.6-8-8 3.6-8 8-8c4.5 0 8 3.6 8 8zM962.2 1735.4l-11.1-11.9c-.2-.2-.5-.5-.7-.6l-9.5-9.9c-.8-.8-1.7-1.2-2.7-1.3h-20.4c-4.3 0-7.7 3.5-7.7 7.7v29.3h.1c0 2.1 1.7 3.9 3.8 3.9 2.1 0 3.8-1.7 3.8-3.9h.1v-29.3h.5v67c0 2.9 2.3 5.2 5.1 5.2s5.1-2.3 5.1-5.2v-35.3h.7v35.3c0 2.9 2.3 5.2 5.1 5.2s5.1-2.3 5.1-5.2V1723l7.1 7.4c.2.2.4.3.6.5l9.5 10.1c1.6 1.7 4.2 1.8 5.8.2 1.2-1.5 1.2-4.1-.3-5.8zM971.9 1790.5h-13.4l-5.7-24 .7-.1 5.5 23.3h12.3l5.5-23.3.7.1z"/><path class="st22" d="M965.7 1751.3c1.6 3.3-8.2-.5-4.8-1.9-3.4 1.4.1-7.8 1.7-4.5-1.6-3.3 8.2.5 4.8 1.9 3.5-1.4-.1 7.8-1.7 4.5z"/><ellipse transform="rotate(-6.12 967.554 1775.136)" class="st22" cx="967.5" cy="1775.3" rx="1.1" ry="10.4"/><ellipse transform="rotate(-6.12 967.452 1780.985)" class="st22" cx="967.5" cy="1781.4" rx="1.8" ry="17.1"/></g><g><path transform="rotate(-43.788 938.51 1752.546)" class="st23" d="M932.6 1691.4h11.8v122.3h-11.8z"/></g><g><path class="st17" d="M3931.4 1821.3h6.5v257h-6.5z"/><path class="st20" d="M4019.7 1749.5c0 2.4-.9 4.8-2.7 6.6l-75.8 75.8c-3.6 3.6-9.6 3.6-13.3 0l-75.8-75.8c-1.8-1.8-2.7-4.2-2.7-6.6 0-2.4.9-4.8 2.7-6.6l75.8-75.8c3.6-3.6 9.6-3.6 13.3 0l75.8 75.8c1.8 1.8 2.7 4.2 2.7 6.6z"/><path class="st21" d="M3862.8 1755.3c-3.2-3.2-3.2-8.4 0-11.5l65.9-65.9c3.2-3.2 8.4-3.2 11.5 0l65.9 65.9c3.2 3.2 3.2 8.4 0 11.5l-65.9 65.9c-3.2 3.2-8.4 3.2-11.5 0l-65.9-65.9z"/><path class="st22" d="M3968.9 1778.4s0-.1-.1-.1l-7.8-12.4c-.8-1.3-2.4-1.9-3.4-1.2s-1.2 2.3-.4 3.6l7.8 12.4.1.1c.1.1.1.2.2.4.8 1.3 2.4 1.9 3.4 1.2 1.1-.7 1.2-2.3.4-3.6-.1-.2-.2-.3-.2-.4zM3963 1742.5c0 3.5-2.8 6.3-6.3 6.3s-6.3-2.8-6.3-6.3 2.8-6.3 6.3-6.3c3.4.1 6.3 2.9 6.3 6.3zM3953.5 1749.8l-10.1-7.5c-.7-.5-1.8-.4-2.3.3-.5.7-.4 1.7.4 2.3l10.1 7.5c1.4 1.1 3 1.9 3.8.4.7-1.4-1.9-3-1.9-3z"/><path class="st22" d="M3969 1762.3l-7-10.4c-.6-1.8-2.3-3.2-4.3-3.2-2.5 0-4.5 2.1-4.5 4.6v10.3c.1 1.2.6 2.2 1.4 3l-7.5 11.2-.1.1-.3.3c-.9 1.3-.8 3 .3 3.7 1 .7 2.6.2 3.5-1.1.1-.1.1-.2.2-.4l.1-.1 8.1-12.2c.1-.1.1-.2.2-.3 2.4-.5 3-2.7 3-2.7v-1.9-5.2l4.1 6.1c.5.8 1.5 1 2.3.5.9-.5 1.1-1.5.5-2.3z"/><g><path class="st22" d="M3948.4 1776.1c0-.1-.1-.2-.1-.2L3934 1753c-1.5-2.5-4.4-3.5-6.3-2.3-1.9 1.2-2.2 4.2-.7 6.6l14.3 22.8c0 .1.1.2.2.2.1.2.2.5.4.7 1.6 2.5 4.4 3.5 6.3 2.3 1.9-1.2 2.3-4.2.7-6.7-.2-.1-.3-.3-.5-.5zM3932.9 1713.9c0 3.5-2.8 6.3-6.3 6.3s-6.3-2.8-6.3-6.3 2.8-6.3 6.3-6.3c3.5.1 6.3 2.9 6.3 6.3zM3920.6 1724.9l-19.7 12v.1c-1.4.9-1.9 2.7-1.1 4.1.9 1.4 2.7 1.8 4.1.9v.1l19.7-12c2.8-1.7 5.3-3.8 3.3-6.2-1.9-2.2-6.3 1-6.3 1z"/><path class="st22" d="M3948.8 1746.6l-13-19.1c-1.1-3.4-4.2-5.8-7.8-5.8-4.6 0-8.2 3.8-8.2 8.5v18.9c.2 2.1 1.2 4.1 2.6 5.6l-13.8 20.7c-.1.1-.1.2-.1.2-.2.2-.3.4-.5.6-1.6 2.4-1.4 5.4.5 6.7 1.9 1.3 4.8.3 6.4-2.1.1-.2.3-.4.4-.7l.2-.2 14.9-22.4c.1-.2.2-.4.4-.6 4.4-1 5.4-5 5.4-5v-3.6-9.5l7.6 11.1h.1c.9 1.4 2.8 1.8 4.2.8 1.3-.8 1.6-2.7.7-4.1z"/></g></g><g><path class="st24" d="M350.5 1569.7h11.9v87.8h-11.9z"/><path class="st25" d="M356.5 1569.7h6v87.8h-6z"/><path class="st26" d="M497.3 1442.9c0 98.2-75.1 130.7-132.2 130.7-1.5 0-3 0-4.6-.1-1.5 0-3-.1-4.6-.2-56.5-3.3-132.2-37.3-132.2-130.4 0-12.5 1.4-25.4 3.9-38.5 3.6-18.9 9.6-38.2 17.3-56.7 26.5-64.3 73.1-120.5 111.1-128.7 1.5-.3 3-.6 4.5-.7 1.5-.2 3.1-.3 4.6-.3 23.7 0 50.4 21.8 73.6 54.2 0 0 0 .1.1.1 1.6 2.2 3.2 4.5 4.7 6.8 29.6 44.3 52.5 105.5 53.7 159.2.1 1.6.1 3.1.1 4.6z"/><path class="st4" d="M497.3 1442.9c0 95.6-79.9 128.9-136.8 130.6-1.5.1-3.1.1-4.6.1V1218c1.5 0 3 .1 4.5.3 16.9 1.9 35.8 14 54.1 32.7 42.2 43.1 80.9 121.1 82.6 187.4.2 1.5.2 3 .2 4.5z"/><path class="st19" d="M438.8 1272.3c-8.3-8.5-16.4-15.6-24.2-21.4-21-15.6-40.3-21.9-58.6-20-39.4 4.1-74.2 46.5-111.1 116.8 26.5-64.3 73.1-120.5 111.1-128.7v-1c1.5 0 3 .1 4.5.3 1.5-.2 3.1-.3 4.6-.3 23.6 0 50.4 21.8 73.7 54.3-.1 0-.1 0 0 0z"/></g><g><path class="st24" d="M762.2 1714.2H773v105h-10.8z"/><path class="st27" d="M767.6 1714.2h5.4v105h-5.4z"/><path class="st26" d="M843.3 1594V1655.3c0 .5 0 .9-.1 1.3v.6c0 .6-.1 1.2-.1 1.9 0 .6-.1 1.2-.2 1.8v.1c-.1.6-.1 1.2-.2 1.7 0 .3-.1.5-.1.8-.1.5-.1.9-.2 1.4-.1.5-.2 1-.2 1.6v.1c0 .2-.1.4-.1.6-.1.5-.2.9-.2 1.4 0 .2-.1.4-.1.6-.1.5-.2.9-.3 1.4 0 .1-.1.3-.1.4-.1.6-.2 1.1-.4 1.7-.1.5-.3 1.1-.4 1.6 0 .1-.1.2-.1.4-.1.6-.3 1.1-.4 1.7-.1.5-.3 1-.4 1.5-.1.2-.1.5-.2.7-.1.3-.2.7-.3 1-.1.3-.2.6-.3.8-.2.5-.4 1.1-.5 1.6-.1.4-.3.9-.4 1.3-.3.9-.7 1.9-1 2.8-.1.4-.3.7-.4 1.1-.2.5-.4 1.1-.7 1.6-.8 1.8-1.6 3.6-2.5 5.3-.3.5-.5 1-.8 1.5-.2.4-.5.9-.7 1.3l-.3.6c-.2.3-.4.7-.6 1-.1.2-.3.5-.4.7-.3.4-.5.9-.8 1.3l-.6.9c0 .1-.1.2-.2.2-.1.2-.3.4-.4.7l-.6.9c-.1.2-.2.3-.3.5-.2.4-.5.7-.7 1.1-.9 1.3-1.9 2.5-2.8 3.8-.4.5-.8 1-1.2 1.4-.5.6-1.1 1.3-1.7 1.9-.1.1-.1.2-.2.2l-.6.6c-.2.2-.4.5-.6.7-.2.2-.4.4-.6.7-.3.4-.7.7-1.1 1.1l-.5.5-.4.4-.6.6c-.2.2-.5.4-.7.7-.2.2-.4.4-.7.6-1.4 1.2-2.7 2.4-4.2 3.5-.4.3-.9.7-1.3 1-1.3.9-2.5 1.8-3.8 2.6-.2.1-.5.3-.7.4-.2.1-.5.3-.7.4-.4.2-.8.5-1.2.7-.2.1-.5.3-.7.4-.2.1-.5.3-.7.4-.3.2-.6.3-.9.5l-.6.3c-.5.3-1 .5-1.5.7-.5.2-1 .4-1.5.7-1.6.7-3.1 1.3-4.8 1.9-.5.2-1.1.4-1.6.5-.5.2-1.1.3-1.6.5-.3.1-.5.2-.8.2-1.1.3-2.3.6-3.4.8-.2 0-.4.1-.6.1-.2 0-.4.1-.6.1-.3.1-.6.1-.9.2-.3.1-.6.1-.9.1-1.2.2-2.4.3-3.5.4-1.3.1-2.7.2-4 .2H772c-1.3 0-2.7-.1-4-.2-36.2-3.3-64.9-39.6-64.9-83.6V1594c0-2.2.1-4.3.2-6.4 2.7-42.6 32.5-76.6 68.7-77.4h2.8c1.4 0 2.7.1 4 .3 15.8 1.4 30.2 9.2 41.4 21.1.6.6 1.2 1.3 1.8 2 .4.4.8.9 1.2 1.3.2.2.4.5.6.7.4.5.7.9 1.1 1.4.4.5.7.9 1.1 1.4 0 0 0 .1.1.1.3.5.7.9 1 1.4l.1.1c.3.4.6.8.9 1.3.1.1.1.2.2.3.3.4.6.9.9 1.3.1.1.1.2.2.3.3.4.5.8.8 1.2.2.4.5.8.7 1.2.1.2.2.3.3.5.2.3.4.6.5.9 0 .1.1.2.1.2l.3.6c.2.4.5.9.7 1.3.3.5.5 1 .8 1.5 0 0 0 .1.1.1.3.5.5 1.1.8 1.6v.1c.2.5.5 1 .7 1.5.3.7.6 1.4.9 2 .2.5.5 1.1.7 1.6.2.4.3.7.4 1.1.4.9.7 1.9 1 2.8.2.4.3.9.4 1.3 0 .1.1.2.1.3.1.4.3.8.4 1.3.2.6.4 1.3.6 1.9.1.2.1.5.2.7.2.5.3 1 .4 1.5.1.5.3 1.1.4 1.7 0 .1.1.2.1.4.1.5.3 1.1.4 1.6.1.6.3 1.1.4 1.7 0 .1.1.3.1.4.1.5.2.9.3 1.4 0 .2.1.4.1.6.1.5.2.9.2 1.4 0 .2.1.4.1.6v.1c.1.5.2 1 .2 1.6.1.5.1.9.2 1.4 0 .3.1.5.1.8.1.6.1 1.2.2 1.7v.1c.1.6.1 1.2.2 1.8 0 .6.1 1.2.1 1.9v.6c0 .4 0 .9.1 1.3v2.5c-.2.6-.2 1.3-.2 2z"/><path class="st4" d="M843.3 1594V1655.3c0 .5 0 .9-.1 1.3v.6c0 .6-.1 1.2-.1 1.9 0 .6-.1 1.2-.2 1.8v.1c-.1.6-.1 1.2-.2 1.7 0 .3-.1.5-.1.8-.1.5-.1.9-.2 1.4-.1.5-.2 1-.2 1.6v.1c0 .2-.1.4-.1.6-.1.5-.2.9-.2 1.4 0 .2-.1.4-.1.6-.1.5-.2.9-.3 1.4 0 .1-.1.3-.1.4-.1.6-.2 1.1-.4 1.7-.1.5-.3 1.1-.4 1.6 0 .1-.1.2-.1.4-.1.6-.3 1.1-.4 1.7-.1.5-.3 1-.4 1.5-.1.2-.1.5-.2.7-.1.3-.2.7-.3 1-.1.3-.2.6-.3.8-.2.5-.4 1.1-.5 1.6-.1.4-.3.9-.4 1.3-.3.9-.7 1.9-1 2.8-.1.4-.3.7-.4 1.1-.2.5-.4 1.1-.7 1.6-.8 1.8-1.6 3.6-2.5 5.3-.3.5-.5 1-.8 1.5-.2.4-.5.9-.7 1.3l-.3.6c-.2.3-.4.7-.6 1-.1.2-.3.5-.4.7-.3.4-.5.9-.8 1.3l-.6.9c0 .1-.1.2-.2.2-.1.2-.3.4-.4.7l-.6.9c-.1.2-.2.3-.3.5-.2.4-.5.7-.7 1.1-.9 1.3-1.9 2.5-2.8 3.8-.4.5-.8 1-1.2 1.4-.5.6-1.1 1.3-1.7 1.9-.1.1-.1.2-.2.2l-.6.6c-.2.2-.4.5-.6.7-.2.2-.4.4-.6.7-.3.4-.7.7-1.1 1.1l-.5.5-.4.4-.6.6c-.2.2-.5.4-.7.7-.2.2-.4.4-.7.6-1.4 1.2-2.7 2.4-4.2 3.5-.4.3-.9.7-1.3 1-1.3.9-2.5 1.8-3.8 2.6-.2.1-.5.3-.7.4-.2.1-.5.3-.7.4-.4.2-.8.5-1.2.7-.2.1-.5.3-.7.4-.2.1-.5.3-.7.4-.3.2-.6.3-.9.5l-.6.3c-.5.3-1 .5-1.5.7-.5.2-1 .4-1.5.7-1.6.7-3.1 1.3-4.8 1.9-.5.2-1.1.4-1.6.5-.5.2-1.1.3-1.6.5-.3.1-.5.2-.8.2-1.1.3-2.3.6-3.4.8-.2 0-.4.1-.6.1-.2 0-.4.1-.6.1-.3.1-.6.1-.9.2-.3.1-.6.1-.9.1-1.2.2-2.4.3-3.5.4-1.3.1-2.7.2-4 .2H772c-1.3 0-2.7-.1-4-.2v-223.9c1.3-.1 2.7-.2 4-.3h2.8c15.9.4 30.6 7.1 42.2 18.2.4.3.7.7 1.1 1l.1.1 1 1 1.1 1.1c.6.6 1.2 1.3 1.8 2 .4.4.8.9 1.2 1.3.2.2.4.5.6.7.4.5.7.9 1.1 1.4.4.5.7.9 1.1 1.4 0 0 0 .1.1.1.3.5.7.9 1 1.4l.1.1c.3.4.6.8.9 1.3.1.1.1.2.2.3.3.4.6.9.9 1.3.1.1.1.2.2.3.3.4.5.8.8 1.2.2.4.5.8.7 1.2.1.2.2.3.3.5.2.3.4.6.5.9 0 .1.1.2.1.2l.3.6c.2.4.5.9.7 1.3.3.5.5 1 .8 1.5 0 0 0 .1.1.1.3.5.5 1.1.8 1.6v.1c.2.5.5 1 .7 1.5.3.7.6 1.4.9 2 .2.5.5 1.1.7 1.6.2.4.3.7.4 1.1.4.9.7 1.9 1 2.8.2.4.3.9.4 1.3 0 .1.1.2.1.3.1.4.3.8.4 1.3.2.6.4 1.3.6 1.9.1.2.1.5.2.7.2.5.3 1 .4 1.5.1.5.3 1.1.4 1.7 0 .1.1.2.1.4.1.5.3 1.1.4 1.6.1.6.3 1.1.4 1.7 0 .1.1.3.1.4.1.5.2.9.3 1.4 0 .2.1.4.1.6.1.5.2.9.2 1.4 0 .2.1.4.1.6v.1c.1.5.2 1 .2 1.6.1.5.1.9.2 1.4 0 .3.1.5.1.8.1.6.1 1.2.2 1.7v.1c.1.6.1 1.2.2 1.8 0 .6.1 1.2.1 1.9v.6c0 .4 0 .9.1 1.3v2.5c-.3.6-.3 1.3-.3 2z"/><path class="st19" d="M843.3 1594v1.4c-19.1-89.6-70.3-76.4-70.3-76.4-1.8.1-3.6.2-5.4.4-34.4 4.5-54.6 41.7-64.7 68.2 2.7-42.6 32.5-76.6 68.7-77.4h2.8c1.4 0 2.7.1 4 .3 15.8 1.4 30.2 9.2 41.4 21.1.6.6 1.2 1.3 1.8 2 .4.4.8.9 1.2 1.3.2.2.4.5.6.7.4.5.7.9 1.1 1.4.4.5.7.9 1.1 1.4 0 0 0 .1.1.1.3.5.7.9 1 1.4l.1.1c.3.4.6.8.9 1.3.1.1.1.2.2.3.3.4.6.9.9 1.3.1.1.1.2.2.3.3.4.5.8.8 1.2.2.4.5.8.7 1.2.1.2.2.3.3.5.2.3.4.6.5.9 0 .1.1.2.1.2l.3.6c.2.4.5.9.7 1.3.3.5.5 1 .8 1.5 0 0 0 .1.1.1.3.5.5 1.1.8 1.6v.1c.2.5.5 1 .7 1.5.3.7.6 1.4.9 2 .2.5.5 1.1.7 1.6.2.4.3.7.4 1.1.4.9.7 1.9 1 2.8.2.4.3.9.4 1.3 0 .1.1.2.1.3.1.4.3.8.4 1.3.2.6.4 1.3.6 1.9.1.2.1.5.2.7.2.5.3 1 .4 1.5.1.5.3 1.1.4 1.7 0 .1.1.2.1.4.1.5.3 1.1.4 1.6.1.6.3 1.1.4 1.7 0 .1.1.3.1.4.1.5.2.9.3 1.4 0 .2.1.4.1.6.1.5.2.9.2 1.4 0 .2.1.4.1.6v.1c.1.5.2 1 .2 1.6.1.5.1.9.2 1.4 0 .3.1.5.1.8.1.6.1 1.2.2 1.7v.1c.1.6.1 1.2.2 1.8 0 .6.1 1.2.1 1.9v.6c0 .4 0 .9.1 1.3v2.5c.2.6.2 1.3.2 2z"/></g><g><path class="st24" d="M1979.3 1780.6h11.2v108.6h-11.2z"/><path class="st27" d="M1984.8 1780.6h5.6v108.6h-5.6z"/><path class="st26" d="M2063.1 1656.3v63.2c0 .5 0 .9-.1 1.4v.6c0 .6-.1 1.3-.1 1.9-.1.6-.1 1.2-.2 1.9v.1c-.1.6-.1 1.2-.2 1.8 0 .3-.1.6-.1.8-.1.5-.1 1-.2 1.4-.1.5-.2 1.1-.2 1.6v.1c0 .2-.1.4-.1.6-.1.5-.2.9-.3 1.4 0 .2-.1.4-.1.6-.1.5-.2 1-.3 1.4 0 .2-.1.3-.1.5-.1.6-.2 1.2-.4 1.8-.1.6-.3 1.1-.4 1.7 0 .1-.1.2-.1.4-.1.6-.3 1.1-.4 1.7-.1.5-.3 1.1-.4 1.6-.1.2-.1.5-.2.7-.1.4-.2.7-.3 1.1l-.3.9c-.2.6-.4 1.1-.6 1.7-.2.4-.3.9-.5 1.3-.3 1-.7 1.9-1.1 2.9-.1.4-.3.8-.5 1.2-.2.6-.5 1.1-.7 1.7-.8 1.9-1.7 3.7-2.6 5.5-.3.5-.5 1-.8 1.5-.2.5-.5.9-.7 1.4l-.3.6c-.2.3-.4.7-.6 1-.1.2-.3.5-.4.7-.3.4-.5.9-.8 1.3l-.6.9c-.1.1-.1.2-.2.3-.1.2-.3.5-.4.7-.2.3-.4.6-.6 1-.1.2-.2.3-.3.5-.3.4-.5.7-.8 1.1-.9 1.3-1.9 2.6-2.9 3.9l-1.2 1.5c-.6.7-1.1 1.3-1.7 2-.1.1-.1.2-.2.2-.2.2-.4.4-.6.7-.2.2-.4.5-.7.7-.2.2-.4.5-.7.7l-1.1 1.1c-.2.2-.3.4-.5.5-.1.1-.3.2-.4.4l-.6.6c-.2.2-.5.4-.7.7-.2.2-.5.4-.7.6-1.4 1.3-2.8 2.4-4.3 3.6-.5.4-.9.7-1.4 1-1.3.9-2.6 1.8-4 2.7-.2.2-.5.3-.7.4-.2.1-.5.3-.7.4-.4.2-.8.5-1.2.7-.3.1-.5.3-.8.4-.3.1-.5.3-.8.4-.3.2-.6.3-1 .5l-.6.3c-.5.3-1 .5-1.6.8-.5.2-1 .5-1.5.7-1.6.7-3.3 1.3-4.9 1.9-.6.2-1.1.4-1.7.5-.6.2-1.1.3-1.7.5-.3.1-.6.2-.8.2-1.2.3-2.4.6-3.6.8-.2 0-.4.1-.7.1-.2 0-.4.1-.6.1-.3.1-.6.1-.9.2-.3.1-.6.1-.9.1-1.2.2-2.4.3-3.7.4-1.4.1-2.8.2-4.2.2h-2.8c-1.4 0-2.8-.1-4.1-.2-37.4-3.4-67.1-41-67.1-86.4v-58.6c0-2.2.1-4.4.2-6.6 2.8-44.1 33.6-79.2 71-80h2.8c1.4 0 2.8.1 4.2.3 16.4 1.5 31.3 9.5 42.8 21.9.6.7 1.2 1.3 1.8 2 .4.5.8.9 1.2 1.4.2.2.4.5.6.7.4.5.8.9 1.1 1.4.4.5.7 1 1.1 1.4 0 0 0 .1.1.1.3.5.7 1 1 1.4l.1.1c.3.4.6.9.9 1.3.1.1.1.2.2.3.3.4.6.9.9 1.3.1.1.1.2.2.3.3.4.5.9.8 1.3.3.4.5.8.8 1.2.1.2.2.3.3.5.2.3.4.6.6 1 .1.1.1.2.1.2l.3.6c.2.5.5.9.7 1.4.3.5.5 1 .8 1.5 0 .1 0 .1.1.1.3.5.6 1.1.8 1.7v.1c.2.5.5 1 .7 1.5l.9 2.1c.2.6.5 1.1.7 1.7.2.4.3.8.5 1.2.4.9.7 1.9 1.1 2.9.2.4.3.9.5 1.3 0 .1.1.2.1.3.1.4.3.9.4 1.3.2.7.4 1.3.6 2 .1.2.1.5.2.7.2.5.3 1.1.4 1.6.2.6.3 1.1.4 1.7 0 .1.1.2.1.4.1.6.3 1.1.4 1.7.1.6.3 1.2.4 1.8 0 .2.1.3.1.5.1.5.2 1 .3 1.4 0 .2.1.4.1.6.1.5.2.9.3 1.4 0 .2.1.4.1.6v.1c.1.5.2 1.1.2 1.6.1.5.1 1 .2 1.4 0 .3.1.6.1.8.1.6.1 1.2.2 1.8v.1c.1.6.1 1.2.2 1.9.1.6.1 1.3.1 1.9v.6c0 .5.1.9.1 1.4v2.5c.3 1.1.4 1.8.4 2.5z"/><path class="st4" d="M2063.1 1656.3v63.2c0 .5 0 .9-.1 1.4v.6c0 .6-.1 1.3-.1 1.9-.1.6-.1 1.2-.2 1.9v.1c-.1.6-.1 1.2-.2 1.8 0 .3-.1.6-.1.8-.1.5-.1 1-.2 1.4-.1.5-.2 1.1-.2 1.6v.1c0 .2-.1.4-.1.6-.1.5-.2.9-.3 1.4 0 .2-.1.4-.1.6-.1.5-.2 1-.3 1.4 0 .2-.1.3-.1.5-.1.6-.2 1.2-.4 1.8-.1.6-.3 1.1-.4 1.7 0 .1-.1.2-.1.4-.1.6-.3 1.1-.4 1.7-.1.5-.3 1.1-.4 1.6-.1.2-.1.5-.2.7-.1.4-.2.7-.3 1.1l-.3.9c-.2.6-.4 1.1-.6 1.7-.2.4-.3.9-.5 1.3-.3 1-.7 1.9-1.1 2.9-.1.4-.3.8-.5 1.2-.2.6-.5 1.1-.7 1.7-.8 1.9-1.7 3.7-2.6 5.5-.3.5-.5 1-.8 1.5-.2.5-.5.9-.7 1.4l-.3.6c-.2.3-.4.7-.6 1-.1.2-.3.5-.4.7-.3.4-.5.9-.8 1.3l-.6.9c-.1.1-.1.2-.2.3-.1.2-.3.5-.4.7-.2.3-.4.6-.6 1-.1.2-.2.3-.3.5-.3.4-.5.7-.8 1.1-.9 1.3-1.9 2.6-2.9 3.9l-1.2 1.5c-.6.7-1.1 1.3-1.7 2-.1.1-.1.2-.2.2-.2.2-.4.4-.6.7-.2.2-.4.5-.7.7-.2.2-.4.5-.7.7l-1.1 1.1c-.2.2-.3.4-.5.5-.1.1-.3.2-.4.4l-.6.6c-.2.2-.5.4-.7.7-.2.2-.5.4-.7.6-1.4 1.3-2.8 2.4-4.3 3.6-.5.3-.9.7-1.4 1-1.3.9-2.6 1.8-4 2.7-.2.2-.5.3-.7.4-.2.1-.5.3-.7.4-.4.2-.8.5-1.2.7-.3.1-.5.3-.8.4-.3.1-.5.3-.8.4-.3.2-.6.3-1 .5l-.6.3c-.5.3-1 .5-1.6.8-.5.2-1 .5-1.5.7-1.6.7-3.3 1.3-4.9 1.9-.6.2-1.1.4-1.7.5-.6.2-1.1.3-1.7.5-.3.1-.6.2-.8.2-1.2.3-2.4.6-3.6.8-.2 0-.4.1-.7.1-.2 0-.4.1-.6.1-.3.1-.6.1-.9.2-.3.1-.6.1-.9.1-1.2.2-2.4.3-3.7.4-1.4.1-2.8.2-4.2.2h-2.8c-1.4 0-2.8-.1-4.1-.2V1570c1.4-.2 2.7-.2 4.1-.3h2.8c16.4.4 31.6 7.4 43.6 18.8l1.1 1.1.1.1 1 1c.4.4.7.8 1.1 1.2.6.7 1.2 1.3 1.8 2 .4.5.8.9 1.2 1.4.2.2.4.5.6.7.4.5.8.9 1.1 1.4.4.5.7 1 1.1 1.4 0 0 0 .1.1.1.3.5.7 1 1 1.4l.1.1c.3.4.6.9.9 1.3.1.1.1.2.2.3.3.4.6.9.9 1.3.1.1.1.2.2.3.3.4.5.9.8 1.3.3.4.5.8.8 1.2.1.2.2.3.3.5.2.3.4.6.6 1 .1.1.1.2.1.2l.3.6c.2.5.5.9.7 1.4.3.5.5 1 .8 1.5 0 .1 0 .1.1.1.3.5.6 1.1.8 1.7v.1c.2.5.5 1 .7 1.5l.9 2.1c.2.6.5 1.1.7 1.7.2.4.3.8.5 1.2.4.9.7 1.9 1.1 2.9.2.4.3.9.5 1.3 0 .1.1.2.1.3.1.4.3.9.4 1.3.2.7.4 1.3.6 2 .1.2.1.5.2.7.2.5.3 1.1.4 1.6.2.6.3 1.1.4 1.7 0 .1.1.2.1.4.1.6.3 1.1.4 1.7.1.6.3 1.2.4 1.8 0 .2.1.3.1.5.1.5.2 1 .3 1.4 0 .2.1.4.1.6.1.5.2.9.3 1.4 0 .2.1.4.1.6v.1c.1.5.2 1.1.2 1.6.1.5.1 1 .2 1.4 0 .3.1.6.1.8.1.6.1 1.2.2 1.8v.1c.1.6.1 1.2.2 1.9.1.6.1 1.3.1 1.9v.6c0 .5.1.9.1 1.4v2.5c.4.9.5 1.6.5 2.3z"/><path class="st19" d="M2063.1 1656.3v1.5c-19.8-92.6-72.7-79-72.7-79-1.9.1-3.7.2-5.6.4-35.6 4.7-56.4 43.1-66.9 70.5 2.8-44.1 33.6-79.2 71-80h2.8c1.4 0 2.8.1 4.2.3 16.4 1.5 31.3 9.5 42.8 21.9.6.7 1.2 1.3 1.8 2 .4.5.8.9 1.2 1.4.2.2.4.5.6.7.4.5.8.9 1.1 1.4.4.5.7 1 1.1 1.4 0 0 0 .1.1.1.3.5.7 1 1 1.4l.1.1c.3.4.6.9.9 1.3.1.1.1.2.2.3.3.4.6.9.9 1.3.1.1.1.2.2.3.3.4.5.9.8 1.3.3.4.5.8.8 1.2.1.2.2.3.3.5.2.3.4.6.6 1 .1.1.1.2.1.2l.3.6c.2.5.5.9.7 1.4.3.5.5 1 .8 1.5 0 .1 0 .1.1.1.3.5.6 1.1.8 1.7v.1c.2.5.5 1 .7 1.5l.9 2.1c.2.6.5 1.1.7 1.7.2.4.3.8.5 1.2.4.9.7 1.9 1.1 2.9.2.4.3.9.5 1.3 0 .1.1.2.1.3.1.4.3.9.4 1.3.2.7.4 1.3.6 2 .1.2.1.5.2.7.2.5.3 1.1.4 1.6.2.6.3 1.1.4 1.7 0 .1.1.2.1.4.1.6.3 1.1.4 1.7.1.6.3 1.2.4 1.8 0 .2.1.3.1.5.1.5.2 1 .3 1.4 0 .2.1.4.1.6.1.5.2.9.3 1.4 0 .2.1.4.1.6v.1c.1.5.2 1.1.2 1.6.1.5.1 1 .2 1.4 0 .3.1.6.1.8.1.6.1 1.2.2 1.8v.1c.1.6.1 1.2.2 1.9.1.6.1 1.3.1 1.9v.6c0 .5.1.9.1 1.4v2.5c.4.9.5 1.6.5 2.3z"/></g><g><path class="st24" d="M2907.2 1676.9h7.2v53.2h-7.2z"/><path class="st25" d="M2910.8 1676.9h3.6v53.2h-3.6z"/><path class="st26" d="M2996.3 1600c0 59.6-45.6 79.3-80.2 79.3h-2.8c-.9 0-1.8-.1-2.8-.1-34.3-2-80.2-22.6-80.2-79.1 0-7.6.8-15.4 2.3-23.4 2.2-11.5 5.8-23.2 10.5-34.4 16.1-39 44.4-73.1 67.4-78.1.9-.2 1.8-.4 2.7-.4.9-.1 1.9-.2 2.8-.2 14.4 0 30.6 13.2 44.7 32.9v.1c1 1.4 1.9 2.7 2.9 4.1 18 26.9 31.8 64 32.6 96.6 0 .8.1 1.8.1 2.7z"/><path class="st4" d="M2996.3 1600c0 58-48.5 78.2-83 79.2h-2.8v-215.7c.9 0 1.8.1 2.7.2 10.2 1.1 21.7 8.5 32.8 19.8 25.6 26.2 49.1 73.5 50.1 113.7.1.9.2 1.9.2 2.8z"/><path class="st19" d="M2960.8 1496.5c-5-5.1-9.9-9.4-14.7-13-12.7-9.5-24.4-13.3-35.5-12.1-23.9 2.5-45 28.2-67.4 70.8 16.1-39 44.4-73.1 67.4-78.1v-.6c.9 0 1.8.1 2.7.2.9-.1 1.9-.2 2.8-.2 14.3 0 30.5 13.3 44.7 33-.1 0-.1 0 0 0z"/></g><g><path class="st24" d="M4595.2 1844.5h10.2v75.4h-10.2z"/><path class="st25" d="M4600.3 1844.5h5.1v75.4h-5.1z"/><path class="st26" d="M4721.3 1735.5c0 84.4-64.6 112.3-113.6 112.3-1.3 0-2.6 0-3.9-.1-1.3 0-2.6-.1-3.9-.2-48.6-2.8-113.6-32.1-113.6-112.1 0-10.7 1.2-21.9 3.3-33.1 3.1-16.3 8.2-32.8 14.8-48.8 22.8-55.2 62.9-103.6 95.5-110.6 1.3-.3 2.6-.5 3.9-.6 1.3-.2 2.6-.2 3.9-.2 20.3 0 43.3 18.7 63.3 46.6 0 0 0 .1.1.1 1.4 1.9 2.7 3.9 4.1 5.9 25.5 38.1 45.1 90.7 46.2 136.8-.1 1.4-.1 2.7-.1 4z"/><path class="st4" d="M4721.3 1735.5c0 82.2-68.7 110.8-117.6 112.3-1.3 0-2.6.1-3.9.1v-305.7c1.3 0 2.6.1 3.9.2 14.5 1.6 30.8 12 46.5 28.1 36.3 37.1 69.5 104.1 71 161 .1 1.4.1 2.7.1 4z"/><path class="st19" d="M4671 1588.9c-7.2-7.3-14.1-13.4-20.8-18.4-18-13.4-34.6-18.8-50.4-17.2-33.9 3.5-63.8 39.9-95.5 100.4 22.8-55.2 62.9-103.6 95.5-110.6v-.9c1.3 0 2.6.1 3.9.2 1.3-.2 2.6-.2 3.9-.2 20.4 0 43.4 18.7 63.4 46.7z"/></g><g><path class="st24" d="M3299.2 1798.7h12.9v142.6h-12.9z"/><path class="st25" d="M3305.7 1798.7h6.4v142.6h-6.4z"/><path class="st26" d="M3458.1 1661.6c0 106.3-81.3 141.4-143.1 141.4-1.6 0-3.3 0-4.9-.1-1.6 0-3.3-.1-4.9-.2-61.2-3.5-143.1-40.4-143.1-141.1 0-13.5 1.5-27.5 4.2-41.7 3.9-20.5 10.4-41.3 18.7-61.4 28.7-69.6 79.2-130.4 120.2-139.2 1.7-.4 3.3-.6 4.9-.8 1.7-.2 3.3-.3 5-.3 25.6 0 54.6 23.5 79.7 58.7 0 0 0 .1.1.1 1.7 2.4 3.4 4.9 5.1 7.4 32.1 47.9 56.8 114.2 58.2 172.2-.2 1.6-.1 3.3-.1 5z"/><path class="st4" d="M3458.1 1661.6c0 103.5-86.4 139.5-148 141.4-1.7.1-3.3.1-4.9.1v-384.9c1.6 0 3.2.1 4.9.3 18.3 2 38.8 15.2 58.5 35.3 45.7 46.7 87.6 131 89.4 202.8 0 1.6.1 3.3.1 5z"/><path class="st19" d="M3394.7 1477c-9-9.1-17.7-16.8-26.2-23.1-22.7-16.9-43.6-23.7-63.4-21.7-42.7 4.5-80.3 50.3-120.2 126.4 28.7-69.6 79.2-130.4 120.2-139.2v-1.1c1.6 0 3.2.1 4.9.3 1.7-.2 3.3-.3 5-.3 25.6-.1 54.5 23.4 79.7 58.7 0-.1 0-.1 0 0z"/></g><g><path class="st24" d="M3572.1 1825.7h4.1v30.4h-4.1z"/><path class="st25" d="M3574.1 1825.7h2.1v30.4h-2.1z"/><path class="st26" d="M3623 1781.7c0 34.1-26.1 45.3-45.9 45.3h-1.6c-.5 0-1.1 0-1.6-.1-19.6-1.1-45.9-12.9-45.9-45.2 0-4.3.5-8.8 1.3-13.4 1.3-6.6 3.3-13.2 6-19.7 9.2-22.3 25.4-41.8 38.5-44.6.5-.1 1.1-.2 1.6-.3.5-.1 1.1-.1 1.6-.1 8.2 0 17.5 7.5 25.5 18.8.6.8 1.1 1.6 1.6 2.4 10.3 15.4 18.2 36.6 18.6 55.2.3.7.3 1.2.3 1.7z"/><path class="st4" d="M3623 1781.7c0 33.2-27.7 44.7-47.4 45.3h-1.6v-123.3c.5 0 1 0 1.6.1 5.9.6 12.4 4.9 18.8 11.3 14.6 15 28.1 42 28.7 65-.1.6-.1 1.1-.1 1.6z"/><path class="st19" d="M3602.7 1722.6c-2.9-2.9-5.7-5.4-8.4-7.4-7.3-5.4-14-7.6-20.3-6.9-13.7 1.4-25.7 16.1-38.5 40.5 9.2-22.3 25.4-41.8 38.5-44.6v-.4c.5 0 1 0 1.6.1.5-.1 1.1-.1 1.6-.1 8.1-.1 17.4 7.5 25.5 18.8 0-.1 0 0 0 0z"/></g></g></svg>