<?xml version="1.0" encoding="utf-8"?>
<!-- Generator: Adobe Illustrator 25.4.1, SVG Export Plug-In . SVG Version: 6.00 Build 0)  -->
<svg version="1.1" id="Layer_1" xmlns="http://www.w3.org/2000/svg" xmlns:xlink="http://www.w3.org/1999/xlink" x="0px" y="0px"
	 viewBox="0 0 11338.6 11338.6" style="enable-background:new 0 0 11338.6 11338.6;" xml:space="preserve">
<style type="text/css">
	.st0{fill:#FFCF04;}
	.st1{fill:#BABEBA;}
	.st2{fill:#E9F2E9;}
	.st3{fill:#1E3521;}
	.st4{fill:#C7C8C6;}
	.st5{fill:#A0A7A0;}
	.st6{fill:#0B0B0B;}
	.st7{fill:#6B6D6B;}
	.st8{fill:#F9FCFB;}
	.st9{fill:#323332;}
	.st10{fill:#838C84;}
	.st11{fill:#7F847F;}
	.st12{fill:#3F3F3E;}
	.st13{fill:#626763;}
	.st14{fill:#7E807E;}
	.st15{fill:#050505;}
	.st16{fill:#87AE8C;}
	.st17{fill:#BAD8BC;}
	.st18{fill:#BABBBA;}
	.st19{fill:#A3A4A3;}
	.st20{fill:#FFFFFF;}
	.st21{fill:#F8E100;}
	.st22{fill:#EC1C24;}
	.st23{fill:#A0BCA0;}
	.st24{fill:#DBDDD9;}
	.st25{fill:#663723;}
	.st26{fill:#965741;}
	.st27{fill:#B4ADAC;}
	.st28{fill:#D6D0D0;}
	.st29{fill:#CB846D;}
	.st30{fill:#A0B59F;}
	.st31{fill:#292D29;}
	.st32{fill:#797C79;}
	.st33{fill:#595E58;}
	.st34{fill:#9FBCA1;}
	.st35{fill:#CED3CF;}
	.st36{fill:#A61E22;}
	.st37{fill:#EC1E24;}
</style>
<g>
	<path class="st0" d="M1570,5602.8c-37,27.5-89.3,19.8-116.8-17.3l0,0c-27.5-37-19.7-89.3,17.3-116.7l342.5-254.3
		c37-27.5,89.3-19.7,116.7,17.3l0,0c27.5,37,19.8,89.3-17.3,116.7L1570,5602.8z"/>
	<g>
		<path class="st1" d="M7391.2,2140.1c-51.2,198.4-141.5,346.6-201.6,331.1c-60.1-15.5-67.3-188.9-16.1-387.3
			c51.2-198.4,141.5-346.6,201.6-331.1C7435.2,1768.3,7442.4,1941.7,7391.2,2140.1z"/>
		<path class="st2" d="M7355.8,2142.6c-45,174.3-118.1,306.2-163.2,294.6c-45.1-11.7-45.2-162.4-0.1-336.8
			c45-174.3,118.1-306.2,163.2-294.6C7400.7,1817.5,7400.8,1968.2,7355.8,2142.6z"/>
		<path class="st1" d="M7723.5,3370c18.3-191.1,34.4-347.9,47.3-473.9l0.2-1.9c51.3-499.9,59.2-576.8-10.5-695
			c-14.5-24.7-55.4-63-241.4-111c-63.1-16.3-115.5-26.4-121.2-27.5l-27.6-5.3l-12.6,66.3l27.6,5.3c0.5,0.1,54.3,10.5,118.4,27
			c174.1,45,196.8,76.2,198.8,79.6c58.4,99.1,50.8,173,1.5,653.8c-13,126.3-29.1,283.5-47.6,476.2l-2.7,28l67.1,6.5L7723.5,3370z"/>
	</g>
	<path class="st3" d="M9516.9,6979.1c61.6,106.3,25.4,242.5-81,304.2l0,0c-106.3,61.6-242.5,25.4-304.2-81l-595.2-1027
		c-61.6-106.3-25.4-242.5,81-304.2l0,0c106.3-61.6,242.5-25.4,304.2,81L9516.9,6979.1z"/>
	<g>
		<polygon class="st4" points="9320.1,7840.6 9280.5,6697.1 9245.9,6698.3 9285.6,7846.9 9300.9,7861.1 		"/>
		<polygon class="st4" points="9347.7,7872.8 10106.5,7030.8 10080.8,7007.6 9311.4,7861.4 9312.5,7882.3 9329.4,7881.4 
			9326.2,7884.8 9350.5,7907.4 10490.4,7868 10489.2,7833.4 		"/>
		<polygon class="st4" points="9277.3,7886.5 9274.9,7884.2 9277.9,7884.1 9277.1,7868.3 8411.6,7088.3 8388.4,7114 9234.8,7876.7 
			8101.3,7915.9 8102.5,7950.5 9254.7,7910.7 		"/>
		<polygon class="st4" points="9314.3,7916.9 9314.6,7921.3 9302.6,7910.1 9288.3,7925.3 9328.4,9086.2 9363.1,9085 9324.1,7957.2 
			10163.4,8713.5 10186.6,8687.8 9330.2,7916 		"/>
		<polygon class="st4" points="9258.9,7919.7 8481.3,8782.6 8507.1,8805.7 9281.2,7946.7 9279.7,7918.7 		"/>
		<path class="st5" d="M9782.2,7884.3c9.3,270.4-202.3,497.2-472.7,506.5c-270.4,9.3-497.2-202.3-506.6-472.7
			c-9.3-270.5,202.3-497.2,472.7-506.6C9546.1,7402.2,9772.8,7613.9,9782.2,7884.3z"/>
		<path class="st6" d="M9222.5,6578.6c-728,25.1-1297.7,635.7-1272.5,1363.6c25.2,728,635.7,1297.7,1363.6,1272.5
			c728-25.2,1297.7-635.7,1272.6-1363.6C10561,7123.2,9950.5,6553.4,9222.5,6578.6z M9303.9,8728.4
			c-464.3,16.1-853.7-347.4-869.8-811.7c-16.1-464.3,347.4-853.7,811.7-869.8c464.3-16.1,853.8,347.3,869.8,811.7
			C10131.7,8323,9768.3,8712.4,9303.9,8728.4z"/>
		<path class="st7" d="M9202.7,6645.4l1.4,39.3c7-0.4,14.1-0.7,21.1-1c5.6-0.2,11.2-0.3,16.8-0.4l-1.4-39.4
			C9228,6644.3,9215.3,6644.8,9202.7,6645.4z"/>
		<path class="st7" d="M8735.2,6806.1c11.4-5.6,22.8-10.9,34.4-16.1l-15.8-35.3c-11.5,5.2-23,10.6-34.4,16.1L8735.2,6806.1z"/>
		<path class="st7" d="M8102.6,7444.4l36,14.4c4.5-11.8,9.3-23.5,14.2-35.2l-36.1-14.5C8111.7,7420.8,8107.1,7432.5,8102.6,7444.4z"
			/>
		<path class="st7" d="M8060.2,7946.1c-0.2-4.4-0.5-8.8-0.6-13.2c-0.3-8.2-0.4-16.5-0.5-24.7l-39.9,1.4c0.2,12.7,0.5,25.3,1,37.9
			L8060.2,7946.1z"/>
		<path class="st7" d="M9695.5,6761.3c11.8,4.5,23.6,9.2,35.3,14l14.6-36.5c-11.6-4.8-23.5-9.3-35.4-13.8L9695.5,6761.3z"/>
		<path class="st7" d="M10361.4,7378.9c3.5,7.5,6.9,15,10.3,22.6c1.8,4,3.6,8,5.3,12l36.9-16.6c-0.4-1.1-0.8-2.2-1.3-3.3
			c0-0.1-0.1-0.1-0.1-0.2c-0.5-1.1-1-2.1-1.4-3.2c-4.1-9.4-8.4-18.7-12.7-27.9L10361.4,7378.9z"/>
		<path class="st7" d="M10085.9,6949.4l-26.8,29.7c9.6,8.3,19,16.7,28.3,25.3l26.7-29.6
			C10104.8,6966.2,10095.4,6957.7,10085.9,6949.4z"/>
		<path class="st7" d="M10195.5,8725.8l-28.8-25.9c-8.5,9.4-17.1,18.6-25.9,27.7l28.9,26.1
			C10178.5,8744.5,10187.1,8735.2,10195.5,8725.8z"/>
		<path class="st7" d="M10382.6,8358.1l36.5,14.7c4.9-11.7,9.6-23.4,14.2-35.2l-36.8-14.8
			C10392.1,8334.7,10387.5,8346.5,10382.6,8358.1z"/>
		<path class="st7" d="M10513.6,7823.4l-39.4,1.4c0.7,12.6,1.2,25.2,1.5,37.9l39.4-1.4c-0.1-4.4-0.1-8.8-0.3-13.2
			C10514.6,7839.8,10514.1,7831.5,10513.6,7823.4z"/>
		<path class="st7" d="M8316.7,7083.8l28.8,26c8.2-9.7,16.6-19.1,25.1-28.5l-28.9-26.1C8333.2,7064.6,8324.9,7074.2,8316.7,7083.8z"
			/>
		<path class="st7" d="M9724.4,9011.3l16,35.6c11.7-4.8,23.3-9.8,34.9-15l-16-35.6C9747.7,9001.4,9736.1,9006.5,9724.4,9011.3z"/>
		<path class="st7" d="M8120,8384.3c5,11.6,10.1,23.2,15.5,34.7l36.6-16.5c-5.3-11.4-10.5-23-15.5-34.6L8120,8384.3z"/>
		<path class="st7" d="M8443,8829.2l26.7-29.6c-9.5-8.4-18.7-17-27.9-25.7l-26.9,29.9C8424,8812.4,8433.5,8820.9,8443,8829.2z"/>
		<path class="st7" d="M9326.9,9138.3l-1.4-38.7c-12.6,0.6-25.3,0.9-37.9,1.2l1.3,38.8c7-0.1,14.1-0.2,21.2-0.5
			C9315.7,9138.8,9321.3,9138.5,9326.9,9138.3z"/>
		<path class="st7" d="M8796.4,9004.9l-14.8,36.9c11.7,4.9,23.4,9.7,35.2,14.3l14.8-37C8819.7,9014.5,8808,9009.8,8796.4,9004.9z"/>
		<path class="st8" d="M9281,7565.3c-182.6,6.3-325.4,159.4-319.1,341.9c6.3,182.5,159.4,325.4,342,319.1
			c182.5-6.3,325.4-159.4,319.1-341.9C9616.6,7701.9,9463.5,7559,9281,7565.3z M9304.7,8144.5c-139.5,4.8-256.4-104.3-261.3-243.8
			c-4.8-139.5,104.3-256.5,243.8-261.3c139.5-4.8,256.5,104.4,261.3,243.8C9553.3,8022.7,9444.1,8139.7,9304.7,8144.5z"/>
		<path class="st9" d="M9313.2,9083.7C8654.8,9106.4,8100.7,8589.4,8078,7931c-22.7-658.3,494.4-1212.4,1152.7-1235.2
			c658.3-22.7,1212.4,494.3,1235.2,1152.7C10488.6,8506.8,9971.5,9060.9,9313.2,9083.7z M9233,6763.3
			c-621.1,21.5-1109,544.3-1087.5,1165.4c21.5,621.1,544.2,1109,1165.4,1087.5c621.1-21.5,1109-544.3,1087.5-1165.4
			C10376.9,7229.7,9854.1,6741.9,9233,6763.3z"/>
		<path class="st10" d="M9310.1,8800.2c-505.8,17.5-931.6-379.9-949.1-885.7c-17.5-505.8,379.9-931.6,885.7-949
			c505.8-17.5,931.6,379.8,949,885.7C10213.2,8356.9,9815.9,8782.7,9310.1,8800.2z M9248.5,7017.3
			c-477.3,16.5-852.1,418.2-835.7,895.4c16.5,477.2,418.2,852.1,895.5,835.6c477.3-16.5,852.1-418.2,835.6-895.4
			C10127.5,7375.6,9725.8,7000.8,9248.5,7017.3z"/>
	</g>
	<path d="M4282.7,7599c-213,87-429.2,199.7-429.2,199.7c-648.8,222.4-1072.1-55.3-1249.4-216.3l2.2-7.8
		c33.3-118.3-35.6-241.2-153.8-274.6L881.5,6857.3c-118.3-33.3-241.2,35.5-274.6,153.9l-15.1,53.5
		c-33.3,118.3,35.5,241.2,153.8,274.6l1570.9,442.7c58.4,16.5,117.9,7.9,167.3-19.1c96.2,62.4,174.1,95,174.1,95
		c714.7,441.8,1456.9,60.8,1457.3,60.6c73.3-29.7,101.8-71.6,132.1-112.6L4282.7,7599z"/>
	<path class="st11" d="M7268.5,3507.9c-67.3,9.2-131.7-54.6-143.8-142.6c-12.1-88,32.7-166.9,100-176.1
		c67.3-9.2,131.6,54.6,143.8,142.6C7380.6,3419.8,7335.8,3498.6,7268.5,3507.9z"/>
	<path class="st12" d="M6677.4,3538.2c-41.4,5.7-81.5-37.3-89.6-95.9l0,0c-8-58.7,19-110.9,60.4-116.6l568.7-78.1
		c41.4-5.7,81.6,37.2,89.6,95.9l0,0c8.1,58.7-19,110.9-60.4,116.6L6677.4,3538.2z"/>
	<path class="st13" d="M6709.1,3521.1c-8.7,1.2-16.6-4.8-17.8-13.5l0,0c-1.1-8.6,4.9-16.6,13.5-17.8l550.8-75.7
		c8.7-1.2,16.6,4.8,17.8,13.5l0,0c1.2,8.6-4.9,16.6-13.5,17.8L6709.1,3521.1z"/>
	<g>
		<polygon class="st4" points="2647.8,7571.6 2647.8,6262.5 2608.1,6262.5 2608.1,7577.4 2625.1,7594.3 		"/>
		<polygon class="st4" points="2678.2,7609.5 3579,6676.7 3550.6,6649.1 2637.1,7595 2637.5,7618.9 2656.8,7618.6 2653.1,7622.3 
			2679.9,7649.1 3984.9,7649.1 3984.9,7609.5 		"/>
		<polygon class="st4" points="2597.1,7622.3 2594.4,7619.7 2597.9,7619.6 2597.6,7601.5 1638.7,6675.5 1611.2,6704 2548.9,7609.5 
			1251.2,7609.5 1251.2,7649.1 2570.2,7649.1 		"/>
		<polygon class="st4" points="2638.2,7658.5 2638.3,7663.6 2625.1,7650.3 2608.1,7667.2 2608.1,8996.2 2647.8,8996.2 2647.8,7705 
			3577.6,8603 3605.1,8574.5 2656.3,7658.2 		"/>
		<polygon class="st4" points="2574.7,7659.6 1651.5,8615.5 1680,8643 2599.2,7691.3 2598.6,7659.2 		"/>
		<circle class="st5" cx="2613.9" cy="7639.8" r="560.5"/>
		<path class="st6" d="M2586.1,6124.6c-833.4,0-1509,675.6-1509,1509c0,833.4,675.6,1509,1509,1509c833.4,0,1509-675.6,1509-1509
			C4095.1,6800.3,3419.5,6124.6,2586.1,6124.6z M2594.3,8586.2c-531.6,0-962.5-430.9-962.5-962.5c0-531.6,430.9-962.5,962.5-962.5
			c531.6,0,962.5,430.9,962.5,962.5C3556.8,8155.2,3125.9,8586.2,2594.3,8586.2z"/>
		<path class="st7" d="M2560.8,6200.3v45c8.1-0.1,16.1-0.3,24.2-0.3c6.4,0,12.8,0.1,19.2,0.2v-45
			C2589.7,6200,2575.3,6200.1,2560.8,6200.3z"/>
		<path class="st7" d="M2019.9,6365.5c13.2-5.9,26.5-11.6,39.9-17.1l-16.7-40.9c-13.4,5.5-26.7,11.2-39.9,17.1L2019.9,6365.5z"/>
		<path class="st7" d="M1271.3,7070.4l40.6,17.9c5.7-13.3,11.6-26.5,17.6-39.6l-40.7-18C1282.7,7043.8,1276.9,7057.1,1271.3,7070.4z
			"/>
		<path class="st7" d="M1203,7642.4c-0.1-5-0.2-10-0.2-15.1c0-9.5,0.2-18.9,0.4-28.3h-45.6c-0.3,14.5-0.5,29-0.4,43.4H1203z"/>
		<path class="st7" d="M3119.7,6352.3c13.4,5.6,26.6,11.4,39.8,17.5l18.2-41.2c-13.1-6-26.5-11.6-39.9-17.1L3119.7,6352.3z"/>
		<path class="st7" d="M3856.7,7084.8c3.7,8.7,7.3,17.5,10.9,26.2c1.9,4.6,3.8,9.3,5.6,13.9l42.9-17.5c-0.5-1.2-0.9-2.5-1.4-3.8
			c0-0.1-0.1-0.2-0.1-0.3c-0.5-1.3-1-2.5-1.5-3.7c-4.3-10.9-8.8-21.7-13.4-32.4L3856.7,7084.8z"/>
		<path class="st7" d="M3558.6,6582.7l-31.8,32.9c10.6,9.9,21.1,19.9,31.4,30.1l31.7-32.8
			C3579.6,6602.7,3569.2,6592.6,3558.6,6582.7z"/>
		<path class="st7" d="M3613.9,8618.3l-31.9-30.8c-10,10.4-20.4,20.6-30.7,30.7l32,30.9C3593.6,8639,3603.8,8628.8,3613.9,8618.3z"
			/>
		<path class="st7" d="M3842.3,8205.3l41.2,18.2c6-13.1,11.9-26.3,17.6-39.7l-41.5-18.3C3854.1,8178.9,3848.4,8192.2,3842.3,8205.3z
			"/>
		<path class="st7" d="M4013.3,7599h-45.1c0.3,14.4,0.4,28.9,0.3,43.4h45.1c0-5,0.2-10,0.2-15.1
			C4013.7,7617.8,4013.5,7608.4,4013.3,7599z"/>
		<path class="st7" d="M1530.4,6666.6l31.9,30.8c9.7-10.7,19.7-21.2,29.8-31.6l-32-31C1550,6645.2,1540.2,6655.9,1530.4,6666.6z"/>
		<path class="st7" d="M3063.9,8926.2l16.8,41.3c13.6-5,27.1-10.3,40.5-15.7l-16.9-41.4C3090.9,8915.8,3077.5,8921.2,3063.9,8926.2z
			"/>
		<path class="st7" d="M1254.1,8145.9c5.3,13.5,10.6,26.9,16.3,40.3l42.5-17.4c-5.7-13.3-11.1-26.7-16.4-40.2L1254.1,8145.9z"/>
		<path class="st7" d="M1605.8,8667.4l31.7-32.8c-10.5-10-20.7-20.2-30.9-30.5l-32,33.1C1584.8,8647.4,1595.2,8657.4,1605.8,8667.4z
			"/>
		<path class="st7" d="M2604.3,9055.7v-44.3c-14.4,0.2-28.9,0.1-43.4-0.2v44.4c8.1,0.1,16.1,0.3,24.2,0.3
			C2591.5,9055.9,2597.9,9055.7,2604.3,9055.7z"/>
		<path class="st7" d="M2003,8882.2l-18.4,41.7c13.1,6.1,26.3,12,39.7,17.7l18.4-41.7C2029.3,8894.1,2016.1,8888.3,2003,8882.2z"/>
		<path class="st8" d="M2613.9,7255.2c-209,0-378.4,169.4-378.4,378.4c0,209,169.4,378.4,378.4,378.4c209,0,378.4-169.4,378.4-378.4
			C2992.3,7424.7,2822.9,7255.2,2613.9,7255.2z M2618.2,7918.5c-159.7,0-289.1-129.4-289.1-289.1c0-159.7,129.4-289.1,289.1-289.1
			s289.1,129.4,289.1,289.1C2907.3,7789,2777.9,7918.5,2618.2,7918.5z"/>
		<path class="st9" d="M2590.8,8992.7c-753.7,0-1366.8-613.2-1366.8-1366.8c0-753.7,613.2-1366.8,1366.8-1366.8
			c753.7,0,1366.8,613.2,1366.8,1366.8C3957.6,8379.6,3344.4,8992.7,2590.8,8992.7z M2590.8,6336.3
			c-711.1,0-1289.6,578.5-1289.6,1289.6c0,711.1,578.5,1289.6,1289.6,1289.6c711.1,0,1289.6-578.5,1289.6-1289.6
			C3880.3,6914.8,3301.8,6336.3,2590.8,6336.3z"/>
		<path class="st10" d="M2598.5,8668.4c-579.1,0-1050.2-471.1-1050.2-1050.2c0-579.1,471.1-1050.2,1050.2-1050.2
			c579.1,0,1050.2,471.1,1050.2,1050.2C3648.7,8197.3,3177.6,8668.4,2598.5,8668.4z M2598.5,6627.3
			c-546.4,0-990.9,444.5-990.9,990.9c0,546.4,444.5,990.9,990.9,990.9c546.4,0,990.9-444.5,990.9-990.9
			C3589.4,7071.8,3144.9,6627.3,2598.5,6627.3z"/>
	</g>
	<path class="st13" d="M6727.4,3471.6c-8.2,1.1-15.3-1.1-15.8-4.9l0,0c-0.5-3.8,5.7-7.9,13.9-9l521.3-71.6
		c8.2-1.1,15.2,1.1,15.8,4.9l0,0c0.5,3.8-5.7,7.9-13.9,9L6727.4,3471.6z"/>
	<g>
		<path class="st14" d="M6645.1,3540.8c-26.1,3.6-54-42.3-62.3-102.5c-8.3-60.2,6.2-111.9,32.3-115.5c26.1-3.6,54,42.3,62.3,102.5
			C6685.7,3485.6,6671.2,3537.3,6645.1,3540.8z"/>
		<path class="st15" d="M6640.1,3525.3c-20.5,2.8-42.9-37.3-50.1-89.7c-7.2-52.4,3.6-97.1,24-99.9c20.5-2.8,43,37.3,50.1,89.7
			C6671.4,3477.8,6660.6,3522.5,6640.1,3525.3z"/>
	</g>
	<g>
		<path class="st16" d="M7793.7,7866.4c-41.6-20.3-73.1-54.4-89.4-107.7c-50.5-165.3,42.5-451.5,123.9-596.6
			c182-324.6,532.6-564.8,887-661.9c618.1-169.4,1388.8-71.6,1751.6,526.1c170.4,282.5-1565.6,634.7-1764.5,693.9
			C8440.9,7798.1,8072.1,8001.9,7793.7,7866.4z"/>
		<path class="st17" d="M8000.4,7213.7c526-595.4,1040-919.8,1844.6-589.1c179.2,73.7,570,246.1,409.1,503.6
			c-129.6,207.4-604.5,223.3-820.3,283.4c350.9-97.8,877.1-364.8,352.1-689.1C9125.1,6314.2,8447.4,6707.7,8000.4,7213.7z"/>
	</g>
	<g>
		<path class="st18" d="M9292.4,7282.8c68.7,101.9,41.7,240.3-60.2,308.9l-46.1,31.1c-101.9,68.7-240.3,41.7-308.9-60.2L7965,6209.1
			c-68.7-101.9-41.7-240.3,60.2-308.9l46.1-31.1c101.9-68.7,240.3-41.7,308.9,60.2L9292.4,7282.8z"/>
		<path class="st19" d="M9185.9,7263.7c62.1,92.1,53.3,206.5-19.6,255.6l-33,22.2c-72.8,49.1-182.2,14.3-244.2-77.8l-823.7-1222.4
			c-62-92-53.2-206.5,19.6-255.5l33-22.2c72.8-49.1,182.2-14.3,244.2,77.8L9185.9,7263.7z"/>
		<g>
			<path class="st20" d="M9228.4,7341.6c0.8,3.2-69.3,23.3-156.6,44.9l-39.5,9.7c-87.3,21.6-158.7,36.4-159.5,33.2l-10.6-42.8
				c-0.8-3.2,69.3-23.3,156.6-44.9l39.5-9.8c87.3-21.5,158.7-36.4,159.5-33.2L9228.4,7341.6z"/>
			<path class="st20" d="M9172.7,7258.9c0.8,3.2-69.3,23.3-156.6,44.9l-39.5,9.7c-87.3,21.6-158.7,36.4-159.5,33.2l-10.6-42.8
				c-0.8-3.2,69.3-23.3,156.6-44.9l39.5-9.7c87.3-21.6,158.7-36.4,159.5-33.2L9172.7,7258.9z"/>
			<path class="st20" d="M9116.9,7176.2c0.8,3.2-69.3,23.3-156.6,44.9l-39.5,9.7c-87.3,21.6-158.7,36.4-159.5,33.2l-10.6-42.8
				c-0.8-3.2,69.3-23.3,156.6-44.9l39.5-9.8c87.3-21.5,158.7-36.4,159.5-33.2L9116.9,7176.2z"/>
			<path class="st20" d="M9061.2,7093.5c0.8,3.2-69.3,23.3-156.6,44.9l-39.5,9.7c-87.3,21.6-158.7,36.4-159.5,33.2l-10.6-42.8
				c-0.8-3.2,69.3-23.3,156.6-44.9l39.5-9.7c87.3-21.6,158.7-36.4,159.5-33.2L9061.2,7093.5z"/>
			<path class="st20" d="M9005.5,7010.8c0.8,3.2-69.3,23.3-156.6,44.9l-39.5,9.7c-87.3,21.6-158.7,36.4-159.5,33.2l-10.6-42.8
				c-0.8-3.2,69.3-23.3,156.6-44.9l39.5-9.8c87.3-21.5,158.7-36.4,159.5-33.2L9005.5,7010.8z"/>
			<path class="st20" d="M8949.7,6928c0.8,3.2-69.3,23.3-156.6,44.9l-39.5,9.7c-87.3,21.6-158.7,36.4-159.5,33.2l-10.6-42.8
				c-0.8-3.2,69.3-23.3,156.6-44.9l39.5-9.7c87.3-21.6,158.7-36.4,159.5-33.2L8949.7,6928z"/>
			<path class="st20" d="M8894,6845.3c0.8,3.2-69.3,23.3-156.6,44.9l-39.5,9.7c-87.3,21.6-158.7,36.4-159.5,33.2l-10.6-42.8
				c-0.8-3.2,69.3-23.3,156.6-44.9l39.5-9.8c87.3-21.6,158.7-36.4,159.5-33.2L8894,6845.3z"/>
			<path class="st20" d="M8838.2,6762.6c0.8,3.2-69.3,23.3-156.6,44.9l-39.5,9.7c-87.3,21.6-158.7,36.4-159.5,33.2l-10.6-42.8
				c-0.8-3.2,69.3-23.3,156.6-44.9l39.5-9.8c87.3-21.5,158.7-36.4,159.5-33.2L8838.2,6762.6z"/>
			<path class="st20" d="M8782.5,6679.9c0.8,3.2-69.3,23.3-156.6,44.9l-39.5,9.7c-87.3,21.6-158.7,36.5-159.5,33.2l-10.6-42.8
				c-0.8-3.2,69.3-23.3,156.6-44.9l39.5-9.8c87.3-21.6,158.7-36.4,159.5-33.2L8782.5,6679.9z"/>
			<path class="st20" d="M8726.8,6597.2c0.8,3.2-69.3,23.3-156.6,44.9l-39.5,9.7c-87.3,21.6-158.7,36.4-159.5,33.2l-10.6-42.8
				c-0.8-3.2,69.3-23.3,156.6-44.9l39.5-9.7c87.3-21.6,158.7-36.5,159.5-33.2L8726.8,6597.2z"/>
			<path class="st20" d="M8671,6514.4c0.8,3.2-69.3,23.3-156.6,44.9l-39.5,9.7c-87.3,21.6-158.7,36.5-159.5,33.2l-10.6-42.8
				c-0.8-3.2,69.3-23.3,156.6-44.9l39.5-9.8c87.3-21.6,158.7-36.4,159.5-33.2L8671,6514.4z"/>
			<path class="st20" d="M8615.3,6431.8c0.8,3.2-69.3,23.3-156.6,44.9l-39.5,9.7c-87.3,21.6-158.7,36.4-159.5,33.2l-10.6-42.8
				c-0.8-3.2,69.3-23.3,156.6-44.9l39.5-9.7c87.3-21.6,158.7-36.4,159.5-33.2L8615.3,6431.8z"/>
			<path class="st20" d="M8559.6,6349c0.8,3.2-69.3,23.3-156.6,44.9l-39.5,9.7c-87.3,21.6-158.7,36.5-159.5,33.2l-10.6-42.8
				c-0.8-3.2,69.3-23.3,156.6-44.9l39.5-9.8c87.3-21.5,158.7-36.4,159.5-33.2L8559.6,6349z"/>
			<path class="st20" d="M8503.8,6266.3c0.8,3.2-69.3,23.3-156.6,44.9l-39.5,9.7c-87.3,21.6-158.7,36.4-159.5,33.2l-10.6-42.8
				c-0.8-3.2,69.3-23.3,156.6-44.9l39.5-9.8c87.3-21.6,158.7-36.4,159.5-33.2L8503.8,6266.3z"/>
			<path class="st20" d="M8448.1,6183.6c0.8,3.2-69.3,23.3-156.6,44.9l-39.5,9.7c-87.3,21.6-158.7,36.4-159.5,33.2l-10.6-42.8
				c-0.8-3.2,69.3-23.3,156.6-44.9l39.5-9.8c87.3-21.5,158.7-36.4,159.5-33.2L8448.1,6183.6z"/>
			<path class="st20" d="M8392.3,6100.9c0.8,3.2-69.3,23.3-156.6,44.9l-39.5,9.7c-87.3,21.6-158.7,36.4-159.5,33.2l-10.6-42.8
				c-0.8-3.2,69.3-23.3,156.6-44.9l39.5-9.8c87.3-21.6,158.7-36.4,159.5-33.2L8392.3,6100.9z"/>
		</g>
	</g>
	<path class="st21" d="M8325.1,3582.7c0,122.9-155.3,222.6-278.2,222.6h-222.6c-122.9,0-222.6-99.7-222.6-222.6v-618.2
		c0-122.9,99.7-222.6,222.6-222.6h222.6c122.9,0,278.2,99.6,278.2,222.6V3582.7z"/>
	<g>
		<path class="st16" d="M8170.5,2704.8h-500.8h0.1c-355.5,3-272,315.3-272,315.3c-6.6-8.8-12.7-17.3-18.5-25.7v25.7l-260.3,69.6
			c-118.7,31.8-189.2,153.8-157.5,272.5l404.1,864.6c31.8,118.7,153.8,189.2,272.5,157.5l65.7-17.6
			c118.7-31.8,189.2-153.8,157.5-272.5l-42-227.2h351.2V2704.8z"/>
	</g>
	<path class="st22" d="M1557.5,5516.1l-276.3-54.8c0,0-110.5,0-176.8,82.3c-66.3,82.3-198.9,383.9-165.8,493.6
		c11.7,38.5,154.7,192,187.9,178.2C1126.5,6215.4,1270.1,5804.1,1557.5,5516.1z"/>
	<path class="st16" d="M5162.8,5684.6c0,0,741.9-426.6,129.8-500.8c-789.3-15-1578.7-30-2368-45c-160.5,0-329.5-36.1-493-18.6
		c-407.2,43.6-742.6,339.5-993.2,641.7c-121.8,146.8-232.2,304.4-322.3,472.6c-81.4,151.9-188.1,402.2-237.6,637
		c0,0-142.2,210.3,136,321.6c197.6,79,519.3,210.2,742.9,264.8c835.6,204,1669.5,411.5,2519.7,421.9
		c477.6,5.8,954.8-15.8,1431.8-34.7c198.2-7.8,764.9-11.3,963.1-7.5c151.4,2.9,352.3,19.9,481.8-75.2
		c110.7-81.3,109.4-271.7,172.3-387.2c181.1-332.9,427.4-625.7,769.1-800.9c246.1-126.2,544.8-219.4,819.9-250.1
		c214.7-23.9,453.6-64,468.5-322.4c14.5-250.7-104-538.7-343.1-646.7c-358.2-161.8-645.8-391-873-709.2
		c-0.1-0.1-278.2-389.5-74.2-834.6c0,0-364.1,55.3-364.7,55.7c-222.6,136-225.4,425.3-221.1,520.6
		c14.9,336.1,197.9,636.6,385.8,904.6c122.9,175.4-318.7-723.8-300.7-497.9c20.2,252.5-358.5,259.6-309.1,457.5
		c78.6,315,321.4,622.1,231.4,960.6c-79.7,299.8-288.4,537.5-465.9,783.5c-146.4,202.9-285.1,421.4-556.2,452.6
		c-380.5,43.7-1124.5,95.3-1507.7,41.8c-272.3-38-405.2-328.7-504.4-540.1c-129.4-276-157-578.1,24.5-843.1
		C4670.4,5866,4927.8,5819.8,5162.8,5684.6z"/>
	<path class="st17" d="M3339.1,7737.2c0,0,2386.3,197.9,3548.6-12.4c257.5-46.6,275.2-315.1,323.7-523.7
		c105.8-454.2,573.7-746.5,905-1026c239-201.7,47.2-401.8-91.2-663.5c-164-310.2-448.9-466.5-432.8-878.1
		c8.8-221.1,19.1-530.8,157.6-738.7c148.4-222.6,278.2-166.9,343.1-83.5c0,0-451.3,995.3,1112.8,1613.6c0,0,265.8,210.1,185.5,649.1
		c0,0-131.1,203-364.7,253.5c-552,119.3-1090.3,217.5-1460.6,704.3c-132.3,173.9-218.2,399.9-328.9,589.2
		c-41.8,71.5-88.7,184.3-170.2,220.7c-162.4,72.3-351.3,25.3-522.6,31.9c-628.5,24.1-1612,88.8-2243.8,58.9
		c-337.1-15.9-683.4-48.2-1011-133.5C2102.6,7489.9,3339.1,7737.2,3339.1,7737.2z"/>
	<path class="st23" d="M4866.1,1530.1"/>
	<path class="st24" d="M1608.4,5604c-99.3,80.7-223.8,192.2-298.5,317.2c-109.9,183.9-155.9,292.1-227.3,294.3
		c-120.4,3.6-15.8-200,18.5-246.4c39.8-53.9,431.7-595.8,510.7-432C1621.2,5556.5,1629.3,5587,1608.4,5604z"/>
	<path class="st25" d="M5719.1,4823.6c225.2,210.6-98.1,390.4-188.4,390.4c0,0-3438.6,9.3-3506.5,9.3c-342,0-342-578.3-342-737.8
		c0-101.9,109.1-276.7,340.9-245.9c241.7,33,483.5,65.5,725.2,98.7c302.1,41.4,522.6,90.6,801.4,217.5
		c255.7,116.5,550.5,65.1,817.7,48.1C4780.1,4577.5,5373,4499.9,5719.1,4823.6z"/>
	<g>
		<path class="st26" d="M3151.8,4877.8c0,42.4-35.2,76.7-78.6,76.7l0,0c-43.4,0-78.6-34.3-78.6-76.7v-421.9
			c0-42.4,35.2-76.7,78.6-76.7l0,0c43.4,0,78.6,34.3,78.6,76.7V4877.8z"/>
		<path class="st27" d="M3184.5,4954.5c0,45.9-39,83.1-87.1,83.1H3049c-48.1,0-87.1-37.2-87.1-83.1l0,0c0-45.9,39-83.1,87.1-83.1
			h48.4C3145.5,4871.4,3184.5,4908.6,3184.5,4954.5L3184.5,4954.5z"/>
		<path class="st28" d="M3119.1,4909.8c0,24.7-20.5,44.7-45.8,44.7l0,0c-25.3,0-45.8-20-45.8-44.7V4897c0-24.7,20.5-44.8,45.8-44.8
			l0,0c25.3,0,45.8,20,45.8,44.8V4909.8z"/>
	</g>
	<path class="st29" d="M1885.6,4333.6c-285.5,286.5-118.4,785.8,256.2,839.9c344.3,49.8,696.3,18.7,1042.2,18.3
		c365.9-0.5,731.8-7.1,1097.7-7c-356.7-0.1-712-44.3-1068.9-39.5c-331.8,4.4-670.9,58.7-996.7-29.9
		C1928.8,5037.3,1624.1,4596.1,1885.6,4333.6z"/>
	<path class="st29" d="M4028.9,4667.4c396-39.2,799.5-79.4,1198.5-21.8c275.5,39.8,546.2,140.5,480,355.6
		c0,0-37.1,120.6-259.7,176.2c-132.1,33-293.5,27.3-427.1,27.3c-224.3,0-423.1-27.3-647.3-27.3c277.1,0,575.8,2.5,851.4-46.9
		c139.8-25.1,458.7-75.1,302.8-278.7c-81.5-106.4-271.6-141.5-394.3-161.8c-314.8-52-637.1-13.6-954-19.7
		C4130.2,4669.4,4077.6,4662.6,4028.9,4667.4z"/>
	<path class="st17" d="M4637.3,5266.5l729.5,24.7c0,0,197.8,136-482.2,432.8c0,0-556.4,98.9-630.6,642.9c0,0-49.5-704.8,420.4-803.7
		c0,0-1335.4-395.7-2398.7-210.2c0,0-717.1,24.7-1310.6,1360.1c0,0,371-1075.7,1162.3-1421.9
		C2127.3,5291.2,2275.7,5118.1,4637.3,5266.5z"/>
	<path class="st17" d="M8066.3,2800c6.4-42.4-357.9-34.5-378.9-31.7c-271.6,36.3-228.6,237.4-152.9,446.9
		c75.1,207.4,178.1,405.3,249.6,613.7c11.7,1.4,33,2,44.2-0.3c-72-218.9-183.2-432.2-215.5-529.3
		c-39.2-117.8-132.1-274.8-69.7-403.7c74.5-153.9,510-46.4,520.5-84.3C8064.7,2807.3,8065.7,2803.6,8066.3,2800z"/>
	<path class="st30" d="M7096.7,3260.8c40.5-93.6,222.3-86.2,318.9-106.5l-17-59.9c-68.6,7.4-159.3,30-171.8,33.5
		c-264.2,72.9-231.4,266.3-127.9,463.5c102.5,195.3,175.8,377.4,274.9,574.2c11.8-0.2,33-2.5,43.7-6.3
		c-100.9-207.1-184.5-403.2-229.7-495.1C7134.5,3555.6,7043.6,3383.6,7096.7,3260.8z"/>
	<g>
		<g>
			<path class="st31" d="M3823.8,7562.2c0,304.2-282.2,550.9-630.2,550.9c-348,0-630.2-246.6-630.2-550.9
				c0-304.2,282.2-550.8,630.2-550.8C3541.7,7011.4,3823.8,7258,3823.8,7562.2z"/>
			<path class="st32" d="M3647.2,7726.1c0,11.2-13.1,20.3-29.3,20.3l-866.6,0.6c-16.2,0-29.3-9.1-29.3-20.3l0,0
				c0-11.2,13.1-20.3,29.2-20.3l866.6-0.6C3634.1,7705.8,3647.2,7714.9,3647.2,7726.1L3647.2,7726.1z"/>
			<path class="st32" d="M3663.5,7629.1c0,11.2-13.9,20.3-31.1,20.3h-919.8c-17.2,0-31.1-9.1-31.1-20.3l0,0
				c0-11.2,13.9-20.3,31.1-20.3h919.8C3649.6,7608.8,3663.5,7617.8,3663.5,7629.1L3663.5,7629.1z"/>
			<path class="st32" d="M3582.3,7815.5c0,11.2-10.9,20.3-24.4,20.3l-722.1,0.5c-13.5,0-24.4-9.1-24.4-20.3l0,0
				c0-11.2,10.9-20.3,24.4-20.3l722.1-0.5C3571.4,7795.2,3582.3,7804.3,3582.3,7815.5L3582.3,7815.5z"/>
			<path class="st32" d="M3460.6,7913c0,11.2-7.1,20.3-15.9,20.3l-471.3,0.3c-8.8,0-15.9-9-16-20.2l0,0c0-11.2,7.1-20.3,15.9-20.3
				l471.3-0.3C3453.4,7892.7,3460.6,7901.8,3460.6,7913L3460.6,7913z"/>
			<path class="st32" d="M3722,7532.1c0,11.2-14.8,20.3-33,20.3h-977.3c-18.2,0-33-9-33-20.3l0,0c0-11.2,14.8-20.3,33-20.3H3689
				C3707.2,7511.8,3722,7520.9,3722,7532.1L3722,7532.1z"/>
		</g>
		<path class="st33" d="M4257.5,7695.4c-78.5,73.5-201.7,69.5-275.3-9l-386.8-412.8c-73.5-78.5-69.5-201.7,9-275.3l0,0
			c78.5-73.5,201.7-69.5,275.3,9l386.8,412.8C4340,7498.6,4336,7621.9,4257.5,7695.4L4257.5,7695.4z"/>
	</g>
	<g>
		<path class="st34" d="M1017.6,7088c150.5-475.8,414.5-1027.3,794.6-1335c473-382.9,1300.2-362.4,1817.4-112.7
			c268.1,129.4,396.3,343.6,499.6,630.9c127.5,354.9,133.1,706.1,189.7,1074.6c0.1,0.3,18,118.9-352.4,79.3
			c0,0-1502.3,211.5-2689.3-257.7C1277.3,7167.2,1128.9,7286.2,1017.6,7088z"/>
		<path class="st35" d="M1252.6,6686.2c-120-18.8,1904.1,420.4,2955.1,197.8C4207.7,6884.1,2674.5,6908.8,1252.6,6686.2z"/>
		<path class="st35" d="M1252.6,6816.1c-120-18.8,1904.1,420.4,2955.1,197.8C4207.7,7013.9,2674.5,7038.6,1252.6,6816.1z"/>
		<path class="st17" d="M1314.4,6533.8c294.5-513.3,700.5-904.2,1313.6-976.5c785.2-92.7,1370.5,378.6,1468.4,1162
			C3980.2,5790.1,2845,5379.8,2074.8,5792C1794.7,5942,1471,6260.9,1314.4,6533.8z"/>
	</g>
	<path class="st21" d="M8311.3,5521.6c26.1,44.8,11,102.3-33.7,128.4l0,0c-44.8,26.1-102.2,11-128.4-33.7l-246.1-421.5
		c-26.1-44.8-11.1-102.3,33.7-128.4l0,0c44.8-26.1,102.3-11.1,128.4,33.7L8311.3,5521.6z"/>
	<g>
		<ellipse class="st1" cx="6682.4" cy="2213.3" rx="122.3" ry="403.6"/>
		<path class="st2" d="M6768,2225.5c0,195.9-41.1,354.7-91.7,354.7c-50.7,0-91.8-158.8-91.8-354.7c0-195.9,41.1-354.7,91.8-354.7
			C6726.9,1870.8,6768,2029.6,6768,2225.5z"/>
		<path class="st1" d="M7489.2,3418.5c-32.7-206.2-58.4-375.8-79-512.1l-0.3-2c-81.9-540.6-94.5-623.7-200.1-729.2
			c-22-22-75.5-51.3-284.5-51.3c-70.9,0-128.8,3.6-135.2,4l-30.5,2l4.7,73.2l30.5-2c0.6,0,60.1-3.7,132-3.7
			c195.7,0,228,26.7,231.1,29.8c88.5,88.5,100.6,168.4,179.4,688.4c20.7,136.6,46.4,306.6,79.4,514.6l4.8,30.2l72.5-11.5
			L7489.2,3418.5z"/>
	</g>
	<path class="st36" d="M8759.8,6218.5c8.4,29.5-8.7,60.2-38.2,68.7l-213.7,61.1c-29.5,8.4-60.2-8.6-68.7-38.2l0,0
		c-8.5-29.5,8.7-60.2,38.1-68.7l213.7-61.1C8720.6,6172,8751.4,6189,8759.8,6218.5L8759.8,6218.5z"/>
	<path class="st37" d="M8704.8,6030.6c8.4,29.5-8.7,60.2-38.2,68.7l-213.7,61.1c-29.5,8.4-60.2-8.6-68.7-38.2l0,0
		c-8.5-29.5,8.7-60.2,38.1-68.7l213.7-61.1C8665.6,5984,8696.4,6001.1,8704.8,6030.6L8704.8,6030.6z"/>
	<g>
		<path class="st11" d="M7513.5,3674.1c-63.6,23.9-140.5-24.1-171.7-107.3c-31.3-83.1-5-169.9,58.5-193.8
			c63.6-23.9,140.5,24.2,171.7,107.3C7603.3,3563.4,7577.1,3650.2,7513.5,3674.1z"/>
		<path class="st12" d="M6943.7,3834.4c-39.2,14.7-87.7-18.3-108.6-73.7l0,0c-20.8-55.5-6-112.3,33.2-127l537.3-201.9
			c39.2-14.7,87.8,18.3,108.6,73.7l0,0c20.8,55.5,6,112.3-33.2,127L6943.7,3834.4z"/>
		<path class="st13" d="M6970.9,3810.7c-8.2,3-17.3-1.1-20.4-9.2l0,0c-3.1-8.1,1.1-17.3,9.2-20.3l520.5-195.6
			c8.2-3.1,17.3,1.1,20.4,9.2l0,0c3.1,8.1-1.1,17.2-9.2,20.3L6970.9,3810.7z"/>
		<path class="st13" d="M6977.7,3758.3c-7.7,2.9-15.1,2.3-16.5-1.3l0,0c-1.3-3.6,3.8-8.9,11.5-11.8l492.5-185.1
			c7.8-2.9,15.1-2.3,16.5,1.3l0,0c1.4,3.6-3.8,8.9-11.6,11.8L6977.7,3758.3z"/>
		<g>
			<path class="st14" d="M6950.4,3829.9c-41.6,15.6-92.6-17.8-114-74.7c-21.4-56.9-5-115.7,36.6-131.3c41.6-15.6,92.6,17.8,114,74.7
				C7008.4,3755.5,6992,3814.3,6950.4,3829.9z"/>
			<path class="st15" d="M6940.3,3816.5c-32.6,12.3-74.1-17.9-92.7-67.4c-18.6-49.4-7.2-99.5,25.4-111.7
				c32.6-12.3,74.1,17.9,92.7,67.4C6984.3,3754.2,6972.9,3804.3,6940.3,3816.5z"/>
		</g>
	</g>
</g>
</svg>
